<svg width="371.22" height="126.42"
    xmlns="http://www.w3.org/2000/svg" viewBox="64.39 11.79 371.22 126.42" style="background:#fff" preserveAspectRatio="xMidYMid">

<style>
svg {
  width: 300px;
}

#frame1 {
  visibility: hidden;
  animation: 1s show infinite;
}

#frame2 {
  visibility: hidden;
  animation: 1s show infinite;
  animation-delay: 0.125s;
}

#frame3 {
  visibility: hidden;
  animation: 1s show infinite;
  animation-delay: 0.25s;
}

#frame4 {
  visibility: hidden;
  animation: 1s show infinite;
  animation-delay: 0.375s;
}

#frame5 {
  visibility: hidden;
  animation: 1s show infinite;
  animation-delay: 0.5s;
}

#frame6 {
  visibility: hidden;
  animation: 1s show infinite;
  animation-delay: 0.625s;
}

#frame7 {
  visibility: hidden;
  animation: 1s show infinite;
  animation-delay: 0.75s;
}

#frame8 {
  visibility: hidden;
  animation: 1s show infinite;
  animation-delay: 0.865s;
}

@keyframes show {
  0%   { visibility: visible;}
  12.5%  { visibility: visible; }
  12.6%  { visibility: hidden; }
  100% { visibility: hidden; }
}
</style>
<g id="frame1">
   <defs>
        <filter id="editing-hover" x="-100%" y="-100%" width="300%" height="300%">
            <feFlood flood-color="rgba(1.9607843137254888%,16.862745098039188%,29.01960784313726%,0.396)" result="flood"/>
            <feComposite operator="in" in2="SourceAlpha" in="flood" result="shadow"/>
            <feOffset dx="-.6" dy="-.5" in="SourceGraphic" result="offset-1"/>
            <feOffset dx=".6" dy=".5" in="shadow" result="offset-2"/>
            <feMerge>
                <feMergeNode in="offset-2"/>
                <feMergeNode in="offset-1"/>
            </feMerge>
        </filter>
    </defs>
    <g filter="url(#editing-hover)">
        <path d="M123.89 96.695l14.65-41.41q.58-1.72 2.47-1.72 1.89 0 2.53 1.79l14.72 41.34q.06.19.06.45 0 1.28-1.28 1.28h-.77q-.83 0-1.21-.83l-13.96-39.75-14.01 39.75q-.39.83-1.22.83h-.77q-1.28 0-1.28-1.28 0-.26.07-.45zm11.65-17.98h11.07q.51 0 .89.35.39.35.39.93v.57q0 .58-.39.93-.38.35-.89.35h-11.07q-1.22 0-1.22-1.28v-.57q0-1.28 1.22-1.28zm30.65-12.42h.51q1.28 0 1.28 1.28v20.23q0 3.77 1.89 5.69 1.89 1.92 5.35 1.92 3.45 0 5.95-2.75.57-.7 1.21-.7 1.22 0 1.22 1.4 0 .58-.32 1.03-1.28 1.79-3.58 2.91-2.31 1.12-4.87 1.12-4.41 0-7.13-2.78-2.72-2.79-2.72-7.78v-20.29q0-1.28 1.21-1.28zm18.95.13h.64q1.21 0 1.21 1.28v23.23q0 2.5.42 3.43.41.92 1.63 1.24l.7.2q.96.19.96.83v.7q0 1.09-1.28 1.09-3.13 0-4.32-1.86-1.18-1.85-1.18-5.69v-23.17q0-1.28 1.22-1.28zm14.4-14.72h.51q1.21 0 1.21 1.22l-.19 35.64q.07 3.27 1.83 5.06 1.76 1.79 4.64 1.79h1.6q.51 0 .86.39.35.38.35.83v.51q0 1.28-2.88 1.28-4.22 0-6.78-2.59-2.56-2.59-2.63-7.2l.2-35.71q.12-1.22 1.28-1.22zm-4.93 14.72h1.53q.58 0 .93.38.35.39.35.9v.38q0 .52-.35.9t-.93.38h-1.53q-.58 0-.93-.38-.35-.38-.35-.9v-.38q0-.51.35-.9.35-.38.93-.38zm8.57 0h4.74q.51 0 .86.38.36.39.36.9v.38q0 .52-.36.9-.35.38-.86.38h-4.74q-.51 0-.89-.38-.39-.38-.39-.9v-.38q0-.51.39-.9.38-.38.89-.38zm15.11 10.43q0-5.05 3.07-7.81 3.07-2.75 8-2.75t7.94 2.79q3 2.78 3 7.77v11.14q0 4.99-3 7.77-3.01 2.79-7.91 2.79-4.89 0-8-2.79-3.1-2.78-3.1-7.77v-11.14zm19.01 0q0-3.65-2.24-5.6-2.24-1.95-5.7-1.95t-5.76 1.95q-2.3 1.95-2.3 5.6v11.14q0 3.65 2.3 5.6 2.3 1.95 5.76 1.95t5.7-1.95q2.24-1.95 2.24-5.6v-11.14zm43.64-10.56q4.74 0 7.3 2.75 2.56 2.76 2.56 7.81v20.29q0 1.28-1.22 1.28h-.51q-1.28 0-1.28-1.28v-20.22q0-3.78-1.79-5.7-1.79-1.92-5.28-1.92t-6.11 2.88q-.71.58-1.22.58-1.15 0-1.21-1.28 0-.52.25-1.03 1.35-1.85 3.59-3.01 2.24-1.15 4.92-1.15zm-29.44.19h.52q.51 0 .89.36.39.35.39.92v29.38q0 .58-.39.93-.38.35-.89.35h-.52q-1.21 0-1.21-1.28v-29.38q0-1.28 1.21-1.28zm2.37 3.97q2.95-4.16 8-4.16 5.06 0 7.62 2.75 2.56 2.76 2.56 7.81v20.29q0 1.28-1.22 1.28h-.51q-1.28 0-1.28-1.28v-20.22q0-3.78-1.79-5.7-1.79-1.92-5.22-1.92-3.42 0-5.98 2.88-.71.58-1.22.58-1.15 0-1.21-1.28 0-.52.25-1.03zm46.72 6.4q0-5.05 3.07-7.81 3.08-2.75 8-2.75 4.93 0 7.94 2.79 3.01 2.78 3.01 7.77v14.08q0 2.5.41 3.43.42.92 1.64 1.24l.7.2q.96.19.96.83v.7q0 1.09-1.28 1.09-3.14 0-4.29-1.86-1.15-1.85-1.15-5.69v-14.02q0-3.65-2.24-5.6-2.24-1.95-5.7-1.95-3.45 0-5.76 1.95-2.3 1.95-2.3 5.6v10.95q0 3.77 1.89 5.69 1.89 1.92 5.44 1.92 3.55 0 5.85-2.88.45-.57 1.25-.57t1.12.96q.19.76-.19 1.34-2.75 4.16-7.9 4.16-5.16 0-7.81-2.75-2.66-2.75-2.66-7.81v-11.01zm34.82-25.15h.51q1.22 0 1.22 1.22l-.2 35.64q.07 3.27 1.83 5.06 1.76 1.79 4.64 1.79h1.6q.51 0 .86.39.35.38.35.83v.51q0 1.28-2.88 1.28-4.22 0-6.78-2.59-2.56-2.59-2.62-7.2l.19-35.71q.13-1.22 1.28-1.22zm-4.93 14.72h1.54q.57 0 .92.38.36.39.36.9v.38q0 .52-.36.9-.35.38-.92.38h-1.54q-.58 0-.93-.38-.35-.38-.35-.9v-.38q0-.51.35-.9.35-.38.93-.38zm8.58 0h4.73q.51 0 .87.38.35.39.35.9v.38q0 .52-.35.9-.36.38-.87.38h-4.73q-.52 0-.9-.38t-.38-.9v-.38q0-.51.38-.9.38-.38.9-.38zm15.1 10.43q0-5.05 3.07-7.81 3.07-2.75 8-2.75t7.94 2.79q3.01 2.78 3.01 7.77v3.84q0 2.75-2.63 2.75h-13.82q-.58 0-.93-.38-.35-.38-.35-.9v-.51q0-.51.35-.89.35-.39.93-.39h13.44v-3.45q0-3.65-2.24-5.6-2.24-1.96-5.7-1.96-3.45 0-5.73 1.96-2.27 1.95-2.27 5.6v11q0 3.65 2.27 5.6 2.28 1.96 5.7 1.96 3.42 0 5.7-1.89 2.27-1.89 2.27-5.41 0-.51.35-.9.35-.38.86-.38h.52q.57 0 .92.38.36.39.36.9-.07 4.93-3.08 7.65-3 2.72-7.87 2.72-4.86 0-7.97-2.79-3.1-2.78-3.1-7.77v-11.14z" fill="#b93cd7"/>
    </g>
    <style></style>
  </g>
  <g id="frame2">
  <defs>
        <filter id="editing-hover" x="-100%" y="-100%" width="300%" height="300%">
            <feFlood flood-color="rgba(1.9607843137254888%,16.862745098039188%,29.01960784313726%,0.396)" result="flood"/>
            <feComposite operator="in" in2="SourceAlpha" in="flood" result="shadow"/>
            <feOffset dx="-.6" dy="-.5" in="SourceGraphic" result="offset-1"/>
            <feOffset dx=".6" dy=".5" in="shadow" result="offset-2"/>
            <feMerge>
                <feMergeNode in="offset-2"/>
                <feMergeNode in="offset-1"/>
            </feMerge>
        </filter>
    </defs>
    <g filter="url(#editing-hover)">
        <path d="M156.175 62.235q2.27-1.06 4.03-1.35 1.76-.28 3.46-.28t3.42.28q1.73.29 3.81 1.22 2.08.93 3.75 2.37 1.66 1.44 2.94 3.97 1.28 2.52 1.6 5.85 0 1.41-1.28 1.41h-.58q-1.15 0-1.28-1.15-.32-2.69-1.34-4.74-1.02-2.05-2.37-3.13-1.34-1.09-3.07-1.8-2.56-1.08-4.77-1.08-2.21 0-3.65.25-1.44.26-3.23 1.09-1.79.83-3.13 2.21-1.35 1.37-2.28 3.87-.92 2.5-.92 5.76v12.54q0 3.27 1.02 5.76 1.02 2.5 2.46 3.88 1.44 1.37 3.36 2.2 3.08 1.35 5.76 1.35 2.69 0 4.58-.48 1.89-.48 3.74-1.7 3.97-2.49 3.97-9.28 0-1.09.35-1.41.36-.32.93-.32h.51q1.28 0 1.28 1.28 0 3.91-1.24 6.85-1.25 2.95-2.92 4.45-1.66 1.5-3.9 2.4-3.46 1.34-6.05 1.34t-4.48-.32q-1.89-.32-4.22-1.4-2.34-1.09-4.1-2.76-1.76-1.66-2.97-4.7-1.22-3.04-1.22-6.94v-13q0-4.03 1.18-7.1 1.19-3.07 2.88-4.7 1.7-1.64 3.97-2.69zm31.27-3.17h.51q1.21 0 1.21 1.22v35.64q0 6.85 5.83 6.85h1.02q.51 0 .87.39.35.38.35.83v.51q0 1.28-2.31 1.28-4.35 0-6.59-2.5-2.24-2.49-2.17-7.29v-35.71q0-1.22 1.28-1.22zm17.72 25.15q0-5.05 3.08-7.81 3.07-2.75 8-2.75 4.92 0 7.93 2.79 3.01 2.78 3.01 7.77v14.08q0 2.5.42 3.43.41.92 1.63 1.24l.7.2q.96.19.96.83v.7q0 1.09-1.28 1.09-3.13 0-4.29-1.86-1.15-1.85-1.15-5.69v-14.02q0-3.65-2.24-5.6-2.24-1.95-5.69-1.95-3.46 0-5.76 1.95-2.31 1.95-2.31 5.6v10.95q0 3.77 1.89 5.69 1.89 1.92 5.44 1.92 3.55 0 5.86-2.88.44-.57 1.24-.57t1.12.96q.2.76-.19 1.34-2.75 4.16-7.9 4.16t-7.81-2.75q-2.66-2.75-2.66-7.81v-11.01zm32.39-2.08q0-3.61 2.46-6.05 2.47-2.43 7.36-2.43 4.9 0 7.52 2.4 2.63 2.4 2.63 7.07 0 .52-.36.87-.35.35-.86.35h-.58q-.51 0-.86-.35t-.35-.8q0-6.47-7.23-6.47-3.33 0-5.03 1.6-1.69 1.6-1.69 4.04 0 2.43 1.63 3.87t6.17 2.33q4.55.9 7.11 2.82 2.56 1.92 2.56 5.73 0 3.81-2.79 6.33-2.78 2.53-7.74 2.53-4.96 0-8.03-2.53-3.07-2.52-3.07-7.45 0-1.35 1.28-1.35h.51q1.21 0 1.21 1.28 0 6.98 8.26 6.98 3.71 0 5.54-1.7 1.82-1.69 1.82-4.19 0-2.49-1.92-3.61-1.92-1.12-6.69-2.15-4.77-1.02-6.81-3.26-2.05-2.24-2.05-5.86zm29.12 0q0-3.61 2.46-6.05 2.47-2.43 7.36-2.43 4.9 0 7.52 2.4 2.63 2.4 2.63 7.07 0 .52-.36.87-.35.35-.86.35h-.58q-.51 0-.86-.35t-.35-.8q0-6.47-7.23-6.47-3.33 0-5.03 1.6-1.69 1.6-1.69 4.04 0 2.43 1.63 3.87t6.17 2.33q4.55.9 7.11 2.82 2.56 1.92 2.56 5.73 0 3.81-2.79 6.33-2.78 2.53-7.74 2.53-4.96 0-8.03-2.53-3.07-2.52-3.07-7.45 0-1.35 1.28-1.35h.51q1.21 0 1.21 1.28 0 6.98 8.26 6.98 3.71 0 5.54-1.7 1.82-1.69 1.82-4.19 0-2.49-1.92-3.61-1.92-1.12-6.69-2.15-4.77-1.02-6.81-3.26-2.05-2.24-2.05-5.86zm30.14-8.41h1.09q.77 0 1.02.32.26.32.26.96v29.5q0 .58-.38.93-.39.35-.9.35h-1.09q-.51 0-.89-.35-.39-.35-.39-.93v-29.5q0-.84.35-1.06.36-.22.93-.22zm-2.49-14.24q.64-.55 2.94-.55t3.01.61q.7.61.7 2.53v.83q0 2.18-.7 2.75-.71.58-3.01.58t-2.94-.58q-.64-.57-.64-2.75v-.83q0-2.05.64-2.59zm4.41 2.78q0-.64-.29-.86-.28-.23-1.15-.23-.86 0-1.12.19-.25.2-.25.9v.64q0 .7.25.9.26.19 1.15.19.9 0 1.16-.19.25-.2.25-.9v-.64zm15.43 6.66v4.86h6.78q.51 0 .86.38.36.39.36.9v.26q0 .51-.36.89-.35.39-.86.39h-6.78l-.07 27.96q0 1.22-1.21 1.22h-.52q-1.28 0-1.28-1.22l.07-35.71q-.07-4.73 2.46-7.33 2.53-2.59 6.95-2.59 2.88 0 2.88 1.28v.51q0 .45-.36.84-.35.38-.86.38h-1.6q-3.01 0-4.74 1.79-1.72 1.79-1.72 5.19zm-7.17 4.86h1.53q.58 0 .93.38.35.39.35.9v.26q0 .51-.35.89-.35.39-.93.39h-1.53q-.58 0-.93-.39-.35-.38-.35-.89v-.26q0-.51.35-.9.35-.38.93-.38zm43.07 0h.58q1.21 0 1.21 1.28v34.18q0 5.5-2.91 8.38-2.91 2.88-7.9 2.88-5 0-7.72-2.66-2.72-2.65-2.84-7.58 0-1.22 1.21-1.22h.58q1.21 0 1.21 1.22.13 3.52 2.28 5.38 2.14 1.85 5.47 1.85 7.61 0 7.61-8.19v-34.24q0-1.28 1.22-1.28zm-18.94-.13h.51q1.28 0 1.28 1.28v20.23q0 3.77 1.89 5.69 1.88 1.92 5.34 1.92t5.95-2.75q.58-.7 1.22-.7 1.21 0 1.21 1.4 0 .58-.32 1.03-1.28 1.79-3.58 2.91t-4.86 1.12q-4.42 0-7.14-2.78-2.72-2.79-2.72-7.78v-20.29q0-1.28 1.22-1.28z" fill="#b93cd7"/>
    </g>
    <style></style> 
  </g>
  <g id="frame3">
  <defs>
        <filter id="editing-hover" x="-100%" y="-100%" width="300%" height="300%">
            <feFlood flood-color="rgba(1.9607843137254888%,16.862745098039188%,29.01960784313726%,0.396)" result="flood"/>
            <feComposite operator="in" in2="SourceAlpha" in="flood" result="shadow"/>
            <feOffset dx="-.6" dy="-.5" in="SourceGraphic" result="offset-1"/>
            <feOffset dx=".6" dy=".5" in="shadow" result="offset-2"/>
            <feMerge>
                <feMergeNode in="offset-2"/>
                <feMergeNode in="offset-1"/>
            </feMerge>
        </filter>
    </defs>
    <g filter="url(#editing-hover)">
        <path d="M168.105 53.625h10.37q9.47 0 12.61 4.61 1.6 2.3 2.18 5.09.57 2.78.57 7v12.29q0 8.19-3.42 12-3.43 3.81-11.55 3.81h-10.69q-2.56 0-2.56-2.62v-39.62q0-1.41.54-1.98.55-.58 1.95-.58zm10.37 3.14h-9.66v38.52h10.05q6.08 0 8.96-2.88 2.88-2.88 2.88-9.4v-12.87q0-7.04-2.56-10.21-2.56-3.16-9.67-3.16zm25.79 20.09q0-5.05 3.08-7.81 3.07-2.75 8-2.75 4.92 0 7.93 2.79 3.01 2.78 3.01 7.77v3.84q0 2.75-2.62 2.75h-13.83q-.57 0-.93-.38-.35-.38-.35-.9v-.51q0-.51.35-.89.36-.39.93-.39h13.44v-3.45q0-3.65-2.24-5.6-2.24-1.96-5.69-1.96-3.46 0-5.73 1.96-2.27 1.95-2.27 5.6v11q0 3.65 2.27 5.6 2.27 1.96 5.69 1.96 3.43 0 5.7-1.89t2.27-5.41q0-.51.35-.9.36-.38.87-.38h.51q.58 0 .93.38.35.39.35.9-.06 4.93-3.07 7.65-3.01 2.72-7.87 2.72-4.87 0-7.97-2.79-3.11-2.78-3.11-7.77v-11.14zm34.12-25.15h.51q1.21 0 1.21 1.22l-.19 35.64q.07 3.27 1.83 5.06 1.76 1.79 4.64 1.79h1.6q.51 0 .86.39.35.38.35.83v.51q0 1.28-2.88 1.28-4.22 0-6.78-2.59-2.56-2.59-2.63-7.2l.2-35.71q.12-1.22 1.28-1.22zm-4.93 14.72h1.53q.58 0 .93.38.35.39.35.9v.38q0 .52-.35.9t-.93.38h-1.53q-.58 0-.93-.38-.35-.38-.35-.9v-.38q0-.51.35-.9.35-.38.93-.38zm8.57 0h4.74q.51 0 .86.38.36.39.36.9v.38q0 .52-.36.9-.35.38-.86.38h-4.74q-.51 0-.89-.38-.39-.38-.39-.9v-.38q0-.51.39-.9.38-.38.89-.38zm15.11 10.43q0-5.05 3.07-7.81 3.07-2.75 8-2.75t7.94 2.79q3 2.78 3 7.77v3.84q0 2.75-2.62 2.75h-13.82q-.58 0-.93-.38-.35-.38-.35-.9v-.51q0-.51.35-.89.35-.39.93-.39h13.44v-3.45q0-3.65-2.24-5.6-2.24-1.96-5.7-1.96t-5.73 1.96q-2.27 1.95-2.27 5.6v11q0 3.65 2.27 5.6 2.27 1.96 5.7 1.96 3.42 0 5.69-1.89 2.28-1.89 2.28-5.41 0-.51.35-.9.35-.38.86-.38h.51q.58 0 .93.38.35.39.35.9-.06 4.93-3.07 7.65-3.01 2.72-7.87 2.72t-7.97-2.79q-3.1-2.78-3.1-7.77v-11.14zm31.36 0q0-5.05 3.07-7.81 3.07-2.75 8-2.75t7.94 2.79q3 2.78 3 7.77 0 1.22-1.28 1.22h-.51q-1.21 0-1.21-1.22 0-3.65-2.24-5.57-2.24-1.92-5.7-1.92t-5.73 1.96q-2.27 1.95-2.27 5.6v11q0 3.65 2.27 5.6 2.27 1.96 5.73 1.96 3.46 0 5.66-1.89 2.21-1.89 2.28-5.41 0-.51.35-.9.35-.38.86-.38h.51q.58 0 .93.38.35.39.35.9-.12 4.86-3.13 7.62-3.01 2.75-7.84 2.75t-7.94-2.79q-3.1-2.78-3.1-7.77v-11.14zm35.07-25.15h.51q1.22 0 1.22 1.22l-.19 35.64q.06 3.27 1.82 5.06 1.76 1.79 4.64 1.79h1.6q.51 0 .86.39.36.38.36.83v.51q0 1.28-2.88 1.28-4.23 0-6.79-2.59-2.56-2.59-2.62-7.2l.19-35.71q.13-1.22 1.28-1.22zm-4.93 14.72h1.54q.57 0 .93.38.35.39.35.9v.38q0 .52-.35.9-.36.38-.93.38h-1.54q-.57 0-.93-.38-.35-.38-.35-.9v-.38q0-.51.35-.9.36-.38.93-.38zm8.58 0h4.73q.52 0 .87.38.35.39.35.9v.38q0 .52-.35.9t-.87.38h-4.73q-.51 0-.9-.38-.38-.38-.38-.9v-.38q0-.51.38-.9.39-.38.9-.38z" fill="#b93cd7"/>
    </g>
    <style></style>  
  </g>
  <g id="frame4">
  <defs>
        <filter id="editing-hover" x="-100%" y="-100%" width="300%" height="300%">
            <feFlood flood-color="rgba(1.9607843137254888%,16.862745098039188%,29.01960784313726%,0.396)" result="flood"/>
            <feComposite operator="in" in2="SourceAlpha" in="flood" result="shadow"/>
            <feOffset dx="-.6" dy="-.5" in="SourceGraphic" result="offset-1"/>
            <feOffset dx=".6" dy=".5" in="shadow" result="offset-2"/>
            <feMerge>
                <feMergeNode in="offset-2"/>
                <feMergeNode in="offset-1"/>
            </feMerge>
        </filter>
    </defs>
    <g filter="url(#editing-hover)">
        <path d="M197.2 53.69h.57q.51 0 .9.38.38.39.38.9v42.24q0 .51-.38.9-.39.38-.9.38h-.57q-.58 0-.93-.38-.35-.39-.35-.9V54.97q0-.51.35-.9.35-.38.93-.38zm22.65 12.67q4.8 0 7.36 2.53 2.56 2.53 2.56 7.39v20.93q0 1.28-1.21 1.28h-.52q-1.28 0-1.28-1.28V76.99q0-7.62-6.97-7.62-3.65 0-6.21 2.88-.7.58-1.22.58-1.15 0-1.21-1.28 0-.52.25-1.03 1.35-1.85 3.59-3.01 2.24-1.15 4.86-1.15zm-10.81.19h.51q.51 0 .89.36.39.35.39.92v29.38q0 .58-.39.93-.38.35-.89.35h-.51q-.52 0-.9-.35t-.38-.93V67.83q0-.57.38-.92.38-.36.9-.36zm35.71-4.92v4.86h6.78q.51 0 .87.38.35.39.35.9v.26q0 .51-.35.89-.36.39-.87.39h-6.78l-.07 27.96q0 1.22-1.21 1.22h-.51q-1.28 0-1.28-1.22l.06-35.71q-.06-4.73 2.46-7.33 2.53-2.59 6.95-2.59 2.88 0 2.88 1.28v.51q0 .45-.35.84-.36.38-.87.38h-1.6q-3.01 0-4.73 1.79-1.73 1.79-1.73 5.19zm-7.17 4.86h1.54q.57 0 .92.38.36.39.36.9v.26q0 .51-.36.89-.35.39-.92.39h-1.54q-.58 0-.93-.39-.35-.38-.35-.89v-.26q0-.51.35-.9.35-.38.93-.38zm23.04 10.43q0-5.05 3.07-7.81 3.07-2.75 8-2.75t7.94 2.79q3.01 2.78 3.01 7.77v3.84q0 2.75-2.63 2.75h-13.82q-.58 0-.93-.38-.35-.38-.35-.9v-.51q0-.51.35-.89.35-.39.93-.39h13.44v-3.45q0-3.65-2.24-5.6-2.24-1.96-5.7-1.96-3.45 0-5.73 1.96-2.27 1.95-2.27 5.6v11q0 3.65 2.27 5.6 2.28 1.96 5.7 1.96 3.42 0 5.7-1.89 2.27-1.89 2.27-5.41 0-.51.35-.9.35-.38.86-.38h.52q.57 0 .92.38.36.39.36.9-.07 4.93-3.08 7.65-3 2.72-7.87 2.72-4.86 0-7.97-2.79-3.1-2.78-3.1-7.77V76.92zm42.24-10.56q1.22 0 1.22 1.28v.45q0 .51-.36.9-.35.38-.86.38-3.65 0-5.82 1.86-2.18 1.85-2.18 5.69v20.29q0 .58-.38.93-.39.35-.9.35h-.45q-.51 0-.89-.35-.39-.35-.39-.93V76.92q0-5.25 2.95-7.9 2.94-2.66 8.06-2.66z" fill="#b93cd7"/>
    </g>
    <style></style> 
  </g>
  <g id="frame5">
    <defs>
        <filter id="editing-hover" x="-100%" y="-100%" width="300%" height="300%">
            <feFlood flood-color="rgba(1.9607843137254888%,16.862745098039188%,29.01960784313726%,0.396)" result="flood"/>
            <feComposite operator="in" in2="SourceAlpha" in="flood" result="shadow"/>
            <feOffset dx="-.6" dy="-.5" in="SourceGraphic" result="offset-1"/>
            <feOffset dx=".6" dy=".5" in="shadow" result="offset-2"/>
            <feMerge>
                <feMergeNode in="offset-2"/>
                <feMergeNode in="offset-1"/>
            </feMerge>
        </filter>
    </defs>
    <g filter="url(#editing-hover)">
        <path d="M147.31 63.125q2.3-.99 4.03-1.24 1.73-.26 3.55-.26 1.83 0 3.62.29t4.06 1.31q2.28 1.02 3.94 2.66 1.66 1.63 2.82 4.6 1.15 2.98 1.15 6.88v13q0 4.03-1.19 7.1-1.18 3.07-2.88 4.74-1.69 1.66-3.93 2.68-3.59 1.6-7.55 1.6-4.16 0-7.08-1.4-2.91-1.41-4.57-3.08-1.67-1.66-2.82-4.7t-1.15-6.94v-13q0-4.03 1.18-7.04 1.19-3 2.85-4.6 1.67-1.6 3.97-2.6zm13.6 2.88q-1.82-.8-3.2-1.02-1.38-.22-2.82-.22t-2.84.22q-1.41.22-3.24 1.02-1.82.8-3.16 2.12-1.35 1.31-2.28 3.77-.92 2.47-.92 5.73v12.54q0 3.27.92 5.76.93 2.5 2.31 3.88 1.37 1.37 3.17 2.2 1.79.84 3.23 1.09 1.44.26 2.85.26 1.4 0 2.84-.26 1.44-.25 3.24-1.09 1.79-.83 3.13-2.2 1.35-1.38 2.27-3.88.93-2.49.93-5.76v-12.54q0-3.26-.96-5.73-.96-2.46-2.3-3.77-1.35-1.32-3.17-2.12zm17.7 18.85q0-4.99 3.04-7.77 3.04-2.79 7.93-2.79 4.9 0 7.97 2.75 3.07 2.76 3.07 7.81v11.14q0 4.93-3.07 7.74-3.07 2.82-7.97 2.82-4.89 0-7.97-2.63v17.28q0 1.22-1.21 1.22h-.58q-1.21 0-1.21-1.22v-36.35zm16.73-5.57q-2.27-1.92-5.73-1.92-3.45 0-5.72 1.96-2.28 1.95-2.28 5.6v15.55q3.91 3.01 7.68 3.01 3.78 0 6.05-1.99 2.27-1.98 2.27-5.63v-10.94q0-3.72-2.27-5.64zm19.43-19.58h.51q1.21 0 1.21 1.22l-.19 35.64q.07 3.27 1.83 5.06 1.76 1.79 4.64 1.79h1.6q.51 0 .86.39.35.38.35.83v.51q0 1.28-2.88 1.28-4.22 0-6.78-2.59-2.56-2.59-2.63-7.2l.2-35.71q.12-1.22 1.28-1.22zm-4.93 14.72h1.53q.58 0 .93.38.35.39.35.9v.38q0 .52-.35.9t-.93.38h-1.53q-.58 0-.93-.38-.35-.38-.35-.9v-.38q0-.51.35-.9.35-.38.93-.38zm8.57 0h4.74q.51 0 .86.38.36.39.36.9v.38q0 .52-.36.9-.35.38-.86.38h-4.74q-.51 0-.89-.38-.39-.38-.39-.9v-.38q0-.51.39-.9.38-.38.89-.38zm16.45-.06h1.09q.77 0 1.02.32.26.32.26.96v29.5q0 .58-.38.93-.39.35-.9.35h-1.09q-.51 0-.89-.35-.39-.35-.39-.93v-29.5q0-.84.35-1.06.36-.22.93-.22zm-2.49-14.24q.64-.55 2.94-.55t3.01.61q.7.61.7 2.53v.83q0 2.18-.7 2.75-.71.58-3.01.58t-2.94-.58q-.64-.57-.64-2.75v-.83q0-2.05.64-2.59zm4.41 2.78q0-.64-.29-.86-.28-.23-1.15-.23-.86 0-1.12.19-.25.2-.25.9v.64q0 .7.25.9.26.19 1.15.19.9 0 1.16-.19.25-.2.25-.9v-.64zm40.19 11.39q4.74 0 7.3 2.75 2.56 2.76 2.56 7.81v20.29q0 1.28-1.22 1.28h-.51q-1.28 0-1.28-1.28v-20.22q0-3.78-1.79-5.7-1.79-1.92-5.28-1.92t-6.11 2.88q-.71.58-1.22.58-1.15 0-1.21-1.28 0-.52.25-1.03 1.35-1.85 3.59-3.01 2.24-1.15 4.92-1.15zm-29.44.19h.52q.51 0 .89.36.39.35.39.92v29.38q0 .58-.39.93-.38.35-.89.35h-.52q-1.21 0-1.21-1.28v-29.38q0-1.28 1.21-1.28zm2.37 3.97q2.95-4.16 8-4.16 5.06 0 7.62 2.75 2.56 2.76 2.56 7.81v20.29q0 1.28-1.22 1.28h-.51q-1.28 0-1.28-1.28v-20.22q0-3.78-1.79-5.7-1.79-1.92-5.22-1.92-3.42 0-5.98 2.88-.71.58-1.22.58-1.15 0-1.21-1.28 0-.52.25-1.03zm47.87-4.09h1.09q.77 0 1.03.32.25.32.25.96v29.5q0 .58-.38.93-.39.35-.9.35h-1.09q-.51 0-.89-.35-.39-.35-.39-.93v-29.5q0-.84.36-1.06.35-.22.92-.22zm-2.49-14.24q.64-.55 2.94-.55 2.31 0 3.01.61.7.61.7 2.53v.83q0 2.18-.7 2.75-.7.58-3.01.58-2.3 0-2.94-.58-.64-.57-.64-2.75v-.83q0-2.05.64-2.59zm4.41 2.78q0-.64-.28-.86-.29-.23-1.16-.23-.86 0-1.12.19-.25.2-.25.9v.64q0 .7.25.9.26.19 1.16.19.89 0 1.15-.19.25-.2.25-.9v-.64zm10.05 11.52h16.96q2.56 0 2.56 2.24 0 .96-1.09 2.43l-16.12 24.32h16.32q1.21 0 1.21 1.22v.51q0 1.28-1.21 1.28h-17.54q-1.09 0-1.73-.64-.64-.64-.64-1.6 0-.96 1.09-2.5l15.94-24.25h-15.75q-1.21 0-1.21-1.22v-.51q0-1.28 1.21-1.28zm28.93 10.43q0-5.05 3.07-7.81 3.07-2.75 8-2.75t7.94 2.79q3.01 2.78 3.01 7.77v3.84q0 2.75-2.63 2.75h-13.82q-.58 0-.93-.38-.35-.38-.35-.9v-.51q0-.51.35-.89.35-.39.93-.39h13.44v-3.45q0-3.65-2.24-5.6-2.24-1.96-5.7-1.96-3.45 0-5.73 1.96-2.27 1.95-2.27 5.6v11q0 3.65 2.27 5.6 2.28 1.96 5.7 1.96 3.42 0 5.7-1.89 2.27-1.89 2.27-5.41 0-.51.35-.9.35-.38.86-.38h.52q.57 0 .92.38.36.39.36.9-.07 4.93-3.08 7.65-3 2.72-7.87 2.72-4.86 0-7.97-2.79-3.1-2.78-3.1-7.77v-11.14z" fill="#b93cd7"/>
    </g>
    <style></style> 
  </g>
  <g id="frame6">
  <defs>
        <filter id="editing-hover" x="-100%" y="-100%" width="300%" height="300%">
            <feFlood flood-color="rgba(1.9607843137254888%,16.862745098039188%,29.01960784313726%,0.396)" result="flood"/>
            <feComposite operator="in" in2="SourceAlpha" in="flood" result="shadow"/>
            <feOffset dx="-.6" dy="-.5" in="SourceGraphic" result="offset-1"/>
            <feOffset dx=".6" dy=".5" in="shadow" result="offset-2"/>
            <feMerge>
                <feMergeNode in="offset-2"/>
                <feMergeNode in="offset-1"/>
            </feMerge>
        </filter>
    </defs>
    <g filter="url(#editing-hover)">
        <path d="M107.69 53.72h9.92q4.48 0 8.26 2.43 1.98 1.28 3.2 3.71 1.21 2.44 1.21 5.76 0 5.06-2.94 8.48-2.94 3.43-10.24 3.43h-4.22q-.58 0-.93-.39-.35-.38-.35-.89v-.58q0-1.28 1.28-1.28h3.45q6.98 0 9.03-2.94 1.72-2.43 1.72-5.89 0-4.54-2.91-6.59t-6.88-2.05h-9.21v40.32q0 .51-.39.9-.38.38-.89.38h-.64q-.52 0-.9-.38-.38-.39-.38-.9v-40.7q0-1.67.57-2.24.58-.58 2.24-.58zm30.08 23.23q0-5.05 3.07-7.81 3.08-2.75 8-2.75 4.93 0 7.94 2.79 3.01 2.78 3.01 7.77v3.84q0 2.75-2.63 2.75h-13.82q-.58 0-.93-.38-.35-.38-.35-.9v-.51q0-.51.35-.89.35-.39.93-.39h13.44v-3.45q0-3.65-2.24-5.6-2.24-1.96-5.7-1.96-3.45 0-5.72 1.96-2.28 1.95-2.28 5.6v11q0 3.65 2.28 5.6 2.27 1.96 5.69 1.96 3.43 0 5.7-1.89t2.27-5.41q0-.51.35-.9.35-.38.87-.38h.51q.57 0 .93.38.35.39.35.9-.07 4.93-3.07 7.65-3.01 2.72-7.88 2.72-4.86 0-7.96-2.79-3.11-2.78-3.11-7.77V76.95zm42.24-10.56q1.22 0 1.22 1.28v.45q0 .51-.35.9-.36.38-.87.38-3.65 0-5.82 1.86-2.18 1.85-2.18 5.69v20.29q0 .58-.38.93-.39.35-.9.35h-.45q-.51 0-.89-.35-.39-.35-.39-.93V76.95q0-5.25 2.95-7.9 2.94-2.66 8.06-2.66zm8.07 8.48q0-3.61 2.46-6.05 2.46-2.43 7.36-2.43t7.52 2.4q2.62 2.4 2.62 7.07 0 .52-.35.87t-.86.35h-.58q-.51 0-.86-.35t-.35-.8q0-6.47-7.24-6.47-3.32 0-5.02 1.6-1.7 1.6-1.7 4.04 0 2.43 1.64 3.87 1.63 1.44 6.17 2.33 4.55.9 7.11 2.82 2.56 1.92 2.56 5.73 0 3.81-2.79 6.33-2.78 2.53-7.74 2.53-4.96 0-8.03-2.53-3.08-2.52-3.08-7.45 0-1.35 1.28-1.35h.52q1.21 0 1.21 1.28 0 6.98 8.26 6.98 3.71 0 5.53-1.7 1.83-1.69 1.83-4.19 0-2.49-1.92-3.61-1.92-1.12-6.69-2.15-4.77-1.02-6.82-3.26-2.04-2.24-2.04-5.86zm28.8 2.08q0-5.05 3.07-7.81 3.07-2.75 8-2.75t7.93 2.79q3.01 2.78 3.01 7.77v11.14q0 4.99-3.01 7.77-3 2.79-7.9 2.79t-8-2.79q-3.1-2.78-3.1-7.77V76.95zm19 0q0-3.65-2.24-5.6-2.24-1.95-5.69-1.95-3.46 0-5.76 1.95-2.31 1.95-2.31 5.6v11.14q0 3.65 2.31 5.6 2.3 1.95 5.76 1.95 3.45 0 5.69-1.95t2.24-5.6V76.95zm24.64-10.56q4.8 0 7.36 2.53 2.56 2.53 2.56 7.39v20.93q0 1.28-1.21 1.28h-.51q-1.28 0-1.28-1.28V77.02q0-7.62-6.98-7.62-3.65 0-6.21 2.88-.7.58-1.21.58-1.16 0-1.22-1.28 0-.52.26-1.03 1.34-1.85 3.58-3.01 2.24-1.15 4.86-1.15zm-10.81.19h.51q.51 0 .9.36.38.35.38.92v29.38q0 .58-.38.93-.39.35-.9.35h-.51q-.51 0-.9-.35-.38-.35-.38-.93V67.86q0-.57.38-.92.39-.36.9-.36zm30.27 10.37q0-5.05 3.07-7.81 3.07-2.75 8-2.75t7.94 2.79q3.01 2.78 3.01 7.77v14.08q0 2.5.41 3.43.42.92 1.63 1.24l.71.2q.96.19.96.83v.7q0 1.09-1.28 1.09-3.14 0-4.29-1.86-1.15-1.85-1.15-5.69V76.95q0-3.65-2.24-5.6-2.24-1.95-5.7-1.95-3.45 0-5.76 1.95-2.3 1.95-2.3 5.6V87.9q0 3.77 1.89 5.69 1.88 1.92 5.44 1.92 3.55 0 5.85-2.88.45-.57 1.25-.57t1.12.96q.19.76-.19 1.34-2.75 4.16-7.91 4.16-5.15 0-7.8-2.75-2.66-2.75-2.66-7.81V76.95zm33.34-25.15h.52q1.21 0 1.21 1.22v35.64q0 6.85 5.83 6.85h1.02q.51 0 .86.39.36.38.36.83v.51q0 1.28-2.31 1.28-4.35 0-6.59-2.5-2.24-2.49-2.18-7.29V53.02q0-1.22 1.28-1.22zm18.88 14.66h1.09q.77 0 1.03.32.25.32.25.96v29.5q0 .58-.38.93-.39.35-.9.35h-1.09q-.51 0-.89-.35-.39-.35-.39-.93v-29.5q0-.84.36-1.06.35-.22.92-.22zm-2.49-14.24q.64-.55 2.94-.55 2.31 0 3.01.61.7.61.7 2.53v.83q0 2.18-.7 2.75-.7.58-3.01.58-2.3 0-2.94-.58-.64-.57-.64-2.75v-.83q0-2.05.64-2.59zm4.41 2.78q0-.64-.28-.86-.29-.23-1.16-.23-.86 0-1.12.19-.25.2-.25.9v.64q0 .7.25.9.26.19 1.16.19.89 0 1.15-.19.25-.2.25-.9V55zm10.05 11.52h16.96q2.56 0 2.56 2.24 0 .96-1.09 2.43l-16.12 24.32h16.32q1.21 0 1.21 1.22v.51q0 1.28-1.21 1.28h-17.54q-1.09 0-1.73-.64-.64-.64-.64-1.6 0-.96 1.09-2.5l15.94-24.25h-15.75q-1.21 0-1.21-1.22v-.51q0-1.28 1.21-1.28zm28.93 10.43q0-5.05 3.07-7.81 3.07-2.75 8-2.75t7.94 2.79q3.01 2.78 3.01 7.77v3.84q0 2.75-2.63 2.75h-13.82q-.58 0-.93-.38-.35-.38-.35-.9v-.51q0-.51.35-.89.35-.39.93-.39h13.44v-3.45q0-3.65-2.24-5.6-2.24-1.96-5.7-1.96-3.45 0-5.73 1.96-2.27 1.95-2.27 5.6v11q0 3.65 2.27 5.6 2.28 1.96 5.7 1.96 3.42 0 5.7-1.89 2.27-1.89 2.27-5.41 0-.51.35-.9.35-.38.86-.38h.52q.57 0 .92.38.36.39.36.9-.07 4.93-3.08 7.65-3 2.72-7.87 2.72-4.86 0-7.97-2.79-3.1-2.78-3.1-7.77V76.95z" fill="#b93cd7"/>
    </g>
    <style></style>  
  </g>
  <g id="frame7">
  <defs>
        <filter id="editing-hover" x="-100%" y="-100%" width="300%" height="300%">
            <feFlood flood-color="rgba(1.9607843137254888%,16.862745098039188%,29.01960784313726%,0.396)" result="flood"/>
            <feComposite operator="in" in2="SourceAlpha" in="flood" result="shadow"/>
            <feOffset dx="-.6" dy="-.5" in="SourceGraphic" result="offset-1"/>
            <feOffset dx=".6" dy=".5" in="shadow" result="offset-2"/>
            <feMerge>
                <feMergeNode in="offset-2"/>
                <feMergeNode in="offset-1"/>
            </feMerge>
        </filter>
    </defs>
    <g filter="url(#editing-hover)">
        <path d="M165.58 53.69h9.92q4.48 0 8.26 2.43 1.98 1.28 3.2 3.71 1.21 2.44 1.21 5.76 0 5.06-2.94 8.48-2.94 3.43-10.24 3.43h-4.22q-.58 0-.93-.39-.35-.38-.35-.89v-.58q0-1.28 1.28-1.28h3.45q6.98 0 9.03-2.94 1.72-2.43 1.72-5.89 0-4.54-2.91-6.59t-6.88-2.05h-9.21v40.32q0 .51-.39.9-.38.38-.89.38h-.64q-.52 0-.9-.38-.38-.39-.38-.9v-40.7q0-1.67.57-2.24.58-.58 2.24-.58zm40.96 12.67q1.22 0 1.22 1.28v.45q0 .51-.35.9-.36.38-.87.38-3.65 0-5.82 1.86-2.18 1.85-2.18 5.69v20.29q0 .58-.38.93-.39.35-.9.35h-.45q-.51 0-.89-.35-.39-.35-.39-.93V76.92q0-5.25 2.95-7.9 2.94-2.66 8.06-2.66zm7.75 10.56q0-5.05 3.07-7.81 3.07-2.75 8-2.75t7.93 2.79q3.01 2.78 3.01 7.77v3.84q0 2.75-2.62 2.75h-13.83q-.57 0-.92-.38-.36-.38-.36-.9v-.51q0-.51.36-.89.35-.39.92-.39h13.44v-3.45q0-3.65-2.24-5.6-2.24-1.96-5.69-1.96-3.46 0-5.73 1.96-2.27 1.95-2.27 5.6v11q0 3.65 2.27 5.6 2.27 1.96 5.7 1.96 3.42 0 5.69-1.89 2.27-1.89 2.27-5.41 0-.51.36-.9.35-.38.86-.38h.51q.58 0 .93.38.35.39.35.9-.06 4.93-3.07 7.65-3.01 2.72-7.87 2.72-4.87 0-7.97-2.79-3.1-2.78-3.1-7.77V76.92zM266 51.64h.77q1.15 0 1.15 1.22v35.2q0 4.99-3.04 7.77-3.04 2.79-7.97 2.79t-8-2.75q-3.07-2.76-3.07-7.81V76.92q0-4.93 3.07-7.68t8-2.75q2.05 0 4.38.77 2.34.77 3.56 1.73V52.86q0-1.22 1.15-1.22zm-1.15 36.35V72.51q-3.72-2.95-7.56-2.95-3.84 0-6.11 1.92-2.27 1.92-2.27 5.57v10.94q0 3.72 2.27 5.64 2.27 1.92 5.73 1.92 3.46 0 5.7-1.96 2.24-1.95 2.24-5.6zm14.78-21.56h1.09q.77 0 1.02.32.26.32.26.96v29.5q0 .58-.39.93-.38.35-.89.35h-1.09q-.51 0-.9-.35-.38-.35-.38-.93v-29.5q0-.84.35-1.06.35-.22.93-.22zm-2.5-14.24q.64-.55 2.95-.55 2.3 0 3.01.61.7.61.7 2.53v.83q0 2.18-.7 2.75-.71.58-3.01.58-2.31 0-2.95-.58-.64-.57-.64-2.75v-.83q0-2.05.64-2.59zm4.42 2.78q0-.64-.29-.86-.29-.23-1.15-.23-.86 0-1.12.19-.26.2-.26.9v.64q0 .7.26.9.26.19 1.15.19.9 0 1.15-.19.26-.2.26-.9v-.64zm9.79 21.95q0-5.05 3.07-7.81 3.08-2.75 8-2.75 4.93 0 7.94 2.79 3.01 2.78 3.01 7.77 0 1.22-1.28 1.22h-.51q-1.22 0-1.22-1.22 0-3.65-2.24-5.57-2.24-1.92-5.7-1.92-3.45 0-5.72 1.96-2.28 1.95-2.28 5.6v11q0 3.65 2.28 5.6 2.27 1.96 5.72 1.96 3.46 0 5.67-1.89t2.27-5.41q0-.51.35-.9.35-.38.87-.38h.51q.57 0 .93.38.35.39.35.9-.13 4.86-3.14 7.62-3.01 2.75-7.84 2.75t-7.93-2.79q-3.11-2.78-3.11-7.77V76.92zm35.07-25.15h.52q1.21 0 1.21 1.22l-.19 35.64q.06 3.27 1.82 5.06 1.76 1.79 4.64 1.79h1.6q.52 0 .87.39.35.38.35.83v.51q0 1.28-2.88 1.28-4.22 0-6.78-2.59-2.56-2.59-2.63-7.2l.19-35.71q.13-1.22 1.28-1.22zm-4.92 14.72h1.53q.58 0 .93.38.35.39.35.9v.38q0 .52-.35.9t-.93.38h-1.53q-.58 0-.93-.38-.35-.38-.35-.9v-.38q0-.51.35-.9.35-.38.93-.38zm8.57 0h4.74q.51 0 .86.38.35.39.35.9v.38q0 .52-.35.9t-.86.38h-4.74q-.51 0-.89-.38-.39-.38-.39-.9v-.38q0-.51.39-.9.38-.38.89-.38z" fill="#b93cd7"/>
    </g>
    <style></style>  
  </g>
  <g id="frame8">
   <defs>
        <filter id="editing-hover" x="-100%" y="-100%" width="300%" height="300%">
            <feFlood flood-color="rgba(1.9607843137254888%,16.862745098039188%,29.01960784313726%,0.396)" result="flood"/>
            <feComposite operator="in" in2="SourceAlpha" in="flood" result="shadow"/>
            <feOffset dx="-.6" dy="-.5" in="SourceGraphic" result="offset-1"/>
            <feOffset dx=".6" dy=".5" in="shadow" result="offset-2"/>
            <feMerge>
                <feMergeNode in="offset-2"/>
                <feMergeNode in="offset-1"/>
            </feMerge>
        </filter>
    </defs>
    <g filter="url(#editing-hover)">
        <path d="M161.55 53.625h9.92q4.48 0 8.26 2.43 1.98 1.28 3.2 3.71 1.21 2.44 1.21 5.76 0 5.06-2.94 8.48-2.94 3.43-10.24 3.43h-4.22q-.58 0-.93-.39-.35-.38-.35-.89v-.58q0-1.28 1.28-1.28h3.45q6.98 0 9.03-2.94 1.72-2.43 1.72-5.89 0-4.54-2.91-6.59t-6.88-2.05h-9.21v40.32q0 .51-.39.9-.38.38-.89.38h-.64q-.52 0-.9-.38-.38-.39-.38-.9v-40.7q0-1.67.57-2.24.58-.58 2.24-.58zm40.96 12.67q1.22 0 1.22 1.28v.45q0 .51-.35.9-.36.38-.87.38-3.65 0-5.82 1.86-2.18 1.85-2.18 5.69v20.29q0 .58-.38.93-.39.35-.9.35h-.45q-.51 0-.89-.35-.39-.35-.39-.93v-20.29q0-5.25 2.95-7.9 2.94-2.66 8.06-2.66zm7.75 10.56q0-5.05 3.07-7.81 3.07-2.75 8-2.75t7.93 2.79q3.01 2.78 3.01 7.77v11.14q0 4.99-3.01 7.77-3 2.79-7.9 2.79t-8-2.79q-3.1-2.78-3.1-7.77v-11.14zm19 0q0-3.65-2.24-5.6-2.24-1.95-5.69-1.95-3.46 0-5.76 1.95-2.31 1.95-2.31 5.6v11.14q0 3.65 2.31 5.6 2.3 1.95 5.76 1.95 3.45 0 5.69-1.95t2.24-5.6v-11.14zm16-25.15h.52q1.21 0 1.21 1.22l-.19 35.64q.06 3.27 1.82 5.06 1.76 1.79 4.64 1.79h1.6q.52 0 .87.39.35.38.35.83v.51q0 1.28-2.88 1.28-4.22 0-6.78-2.59-2.56-2.59-2.63-7.2l.19-35.71q.13-1.22 1.28-1.22zm-4.92 14.72h1.53q.58 0 .93.38.35.39.35.9v.38q0 .52-.35.9t-.93.38h-1.53q-.58 0-.93-.38-.35-.38-.35-.9v-.38q0-.51.35-.9.35-.38.93-.38zm8.57 0h4.74q.51 0 .86.38.35.39.35.9v.38q0 .52-.35.9t-.86.38h-4.74q-.51 0-.89-.38-.39-.38-.39-.9v-.38q0-.51.39-.9.38-.38.89-.38zm15.11 10.43q0-5.05 3.07-7.81 3.07-2.75 8-2.75t7.93 2.79q3.01 2.78 3.01 7.77v3.84q0 2.75-2.62 2.75h-13.83q-.57 0-.92-.38-.36-.38-.36-.9v-.51q0-.51.36-.89.35-.39.92-.39h13.44v-3.45q0-3.65-2.24-5.6-2.24-1.96-5.69-1.96-3.46 0-5.73 1.96-2.27 1.95-2.27 5.6v11q0 3.65 2.27 5.6 2.27 1.96 5.7 1.96 3.42 0 5.69-1.89 2.27-1.89 2.27-5.41 0-.51.36-.9.35-.38.86-.38h.51q.58 0 .93.38.35.39.35.9-.06 4.93-3.07 7.65-3.01 2.72-7.87 2.72-4.87 0-7.97-2.79-3.1-2.78-3.1-7.77v-11.14zm31.36 0q0-5.05 3.07-7.81 3.07-2.75 8-2.75t7.93 2.79q3.01 2.78 3.01 7.77 0 1.22-1.28 1.22h-.51q-1.22 0-1.22-1.22 0-3.65-2.24-5.57-2.24-1.92-5.69-1.92-3.46 0-5.73 1.96-2.27 1.95-2.27 5.6v11q0 3.65 2.27 5.6 2.27 1.96 5.73 1.96 3.45 0 5.66-1.89t2.27-5.41q0-.51.36-.9.35-.38.86-.38h.51q.58 0 .93.38.35.39.35.9-.13 4.86-3.13 7.62-3.01 2.75-7.84 2.75-4.84 0-7.94-2.79-3.1-2.78-3.1-7.77v-11.14zm35.07-25.15h.51q1.22 0 1.22 1.22l-.2 35.64q.07 3.27 1.83 5.06 1.76 1.79 4.64 1.79h1.6q.51 0 .86.39.35.38.35.83v.51q0 1.28-2.88 1.28-4.22 0-6.78-2.59-2.56-2.59-2.62-7.2l.19-35.71q.13-1.22 1.28-1.22zm-4.93 14.72h1.54q.57 0 .92.38.36.39.36.9v.38q0 .52-.36.9-.35.38-.92.38h-1.54q-.58 0-.93-.38-.35-.38-.35-.9v-.38q0-.51.35-.9.35-.38.93-.38zm8.58 0h4.73q.51 0 .87.38.35.39.35.9v.38q0 .52-.35.9-.36.38-.87.38h-4.73q-.52 0-.9-.38t-.38-.9v-.38q0-.51.38-.9.38-.38.9-.38z" fill="#b93cd7"/>
    </g>
    <style></style>
  </g>


</svg>