<svg width="371.22" height="126.42"
    xmlns="http://www.w3.org/2000/svg" viewBox="64.39 11.79 371.22 126.42" style="background:#fff" preserveAspectRatio="xMidYMid">
    <defs>
        <filter id="editing-hover" x="-100%" y="-100%" width="300%" height="300%">
            <feFlood flood-color="rgba(1.9607843137254888%,16.862745098039188%,29.01960784313726%,0.396)" result="flood"/>
            <feComposite operator="in" in2="SourceAlpha" in="flood" result="shadow"/>
            <feOffset dx="-.6" dy="-.5" in="SourceGraphic" result="offset-1"/>
            <feOffset dx=".6" dy=".5" in="shadow" result="offset-2"/>
            <feMerge>
                <feMergeNode in="offset-2"/>
                <feMergeNode in="offset-1"/>
            </feMerge>
        </filter>
    </defs>
    <g filter="url(#editing-hover)">
        <path d="M123.89 96.695l14.65-41.41q.58-1.72 2.47-1.72 1.89 0 2.53 1.79l14.72 41.34q.06.19.06.45 0 1.28-1.28 1.28h-.77q-.83 0-1.21-.83l-13.96-39.75-14.01 39.75q-.39.83-1.22.83h-.77q-1.28 0-1.28-1.28 0-.26.07-.45zm11.65-17.98h11.07q.51 0 .89.35.39.35.39.93v.57q0 .58-.39.93-.38.35-.89.35h-11.07q-1.22 0-1.22-1.28v-.57q0-1.28 1.22-1.28zm30.65-12.42h.51q1.28 0 1.28 1.28v20.23q0 3.77 1.89 5.69 1.89 1.92 5.35 1.92 3.45 0 5.95-2.75.57-.7 1.21-.7 1.22 0 1.22 1.4 0 .58-.32 1.03-1.28 1.79-3.58 2.91-2.31 1.12-4.87 1.12-4.41 0-7.13-2.78-2.72-2.79-2.72-7.78v-20.29q0-1.28 1.21-1.28zm18.95.13h.64q1.21 0 1.21 1.28v23.23q0 2.5.42 3.43.41.92 1.63 1.24l.7.2q.96.19.96.83v.7q0 1.09-1.28 1.09-3.13 0-4.32-1.86-1.18-1.85-1.18-5.69v-23.17q0-1.28 1.22-1.28zm14.4-14.72h.51q1.21 0 1.21 1.22l-.19 35.64q.07 3.27 1.83 5.06 1.76 1.79 4.64 1.79h1.6q.51 0 .86.39.35.38.35.83v.51q0 1.28-2.88 1.28-4.22 0-6.78-2.59-2.56-2.59-2.63-7.2l.2-35.71q.12-1.22 1.28-1.22zm-4.93 14.72h1.53q.58 0 .93.38.35.39.35.9v.38q0 .52-.35.9t-.93.38h-1.53q-.58 0-.93-.38-.35-.38-.35-.9v-.38q0-.51.35-.9.35-.38.93-.38zm8.57 0h4.74q.51 0 .86.38.36.39.36.9v.38q0 .52-.36.9-.35.38-.86.38h-4.74q-.51 0-.89-.38-.39-.38-.39-.9v-.38q0-.51.39-.9.38-.38.89-.38zm15.11 10.43q0-5.05 3.07-7.81 3.07-2.75 8-2.75t7.94 2.79q3 2.78 3 7.77v11.14q0 4.99-3 7.77-3.01 2.79-7.91 2.79-4.89 0-8-2.79-3.1-2.78-3.1-7.77v-11.14zm19.01 0q0-3.65-2.24-5.6-2.24-1.95-5.7-1.95t-5.76 1.95q-2.3 1.95-2.3 5.6v11.14q0 3.65 2.3 5.6 2.3 1.95 5.76 1.95t5.7-1.95q2.24-1.95 2.24-5.6v-11.14zm43.64-10.56q4.74 0 7.3 2.75 2.56 2.76 2.56 7.81v20.29q0 1.28-1.22 1.28h-.51q-1.28 0-1.28-1.28v-20.22q0-3.78-1.79-5.7-1.79-1.92-5.28-1.92t-6.11 2.88q-.71.58-1.22.58-1.15 0-1.21-1.28 0-.52.25-1.03 1.35-1.85 3.59-3.01 2.24-1.15 4.92-1.15zm-29.44.19h.52q.51 0 .89.36.39.35.39.92v29.38q0 .58-.39.93-.38.35-.89.35h-.52q-1.21 0-1.21-1.28v-29.38q0-1.28 1.21-1.28zm2.37 3.97q2.95-4.16 8-4.16 5.06 0 7.62 2.75 2.56 2.76 2.56 7.81v20.29q0 1.28-1.22 1.28h-.51q-1.28 0-1.28-1.28v-20.22q0-3.78-1.79-5.7-1.79-1.92-5.22-1.92-3.42 0-5.98 2.88-.71.58-1.22.58-1.15 0-1.21-1.28 0-.52.25-1.03zm46.72 6.4q0-5.05 3.07-7.81 3.08-2.75 8-2.75 4.93 0 7.94 2.79 3.01 2.78 3.01 7.77v14.08q0 2.5.41 3.43.42.92 1.64 1.24l.7.2q.96.19.96.83v.7q0 1.09-1.28 1.09-3.14 0-4.29-1.86-1.15-1.85-1.15-5.69v-14.02q0-3.65-2.24-5.6-2.24-1.95-5.7-1.95-3.45 0-5.76 1.95-2.3 1.95-2.3 5.6v10.95q0 3.77 1.89 5.69 1.89 1.92 5.44 1.92 3.55 0 5.85-2.88.45-.57 1.25-.57t1.12.96q.19.76-.19 1.34-2.75 4.16-7.9 4.16-5.16 0-7.81-2.75-2.66-2.75-2.66-7.81v-11.01zm34.82-25.15h.51q1.22 0 1.22 1.22l-.2 35.64q.07 3.27 1.83 5.06 1.76 1.79 4.64 1.79h1.6q.51 0 .86.39.35.38.35.83v.51q0 1.28-2.88 1.28-4.22 0-6.78-2.59-2.56-2.59-2.62-7.2l.19-35.71q.13-1.22 1.28-1.22zm-4.93 14.72h1.54q.57 0 .92.38.36.39.36.9v.38q0 .52-.36.9-.35.38-.92.38h-1.54q-.58 0-.93-.38-.35-.38-.35-.9v-.38q0-.51.35-.9.35-.38.93-.38zm8.58 0h4.73q.51 0 .87.38.35.39.35.9v.38q0 .52-.35.9-.36.38-.87.38h-4.73q-.52 0-.9-.38t-.38-.9v-.38q0-.51.38-.9.38-.38.9-.38zm15.1 10.43q0-5.05 3.07-7.81 3.07-2.75 8-2.75t7.94 2.79q3.01 2.78 3.01 7.77v3.84q0 2.75-2.63 2.75h-13.82q-.58 0-.93-.38-.35-.38-.35-.9v-.51q0-.51.35-.89.35-.39.93-.39h13.44v-3.45q0-3.65-2.24-5.6-2.24-1.96-5.7-1.96-3.45 0-5.73 1.96-2.27 1.95-2.27 5.6v11q0 3.65 2.27 5.6 2.28 1.96 5.7 1.96 3.42 0 5.7-1.89 2.27-1.89 2.27-5.41 0-.51.35-.9.35-.38.86-.38h.52q.57 0 .92.38.36.39.36.9-.07 4.93-3.08 7.65-3 2.72-7.87 2.72-4.86 0-7.97-2.79-3.1-2.78-3.1-7.77v-11.14z" fill="#b93cd7"/>
    </g>
    <style></style>
</svg>