<svg width="309" height="126.42"
    xmlns="http://www.w3.org/2000/svg" viewBox="95.5 11.79 309 126.42" style="background:#fff" preserveAspectRatio="xMidYMid">
    <defs>
        <filter id="editing-hover" x="-100%" y="-100%" width="300%" height="300%">
            <feFlood flood-color="rgba(1.9607843137254888%,16.862745098039188%,29.01960784313726%,0.396)" result="flood"/>
            <feComposite operator="in" in2="SourceAlpha" in="flood" result="shadow"/>
            <feOffset dx="-.6" dy="-.5" in="SourceGraphic" result="offset-1"/>
            <feOffset dx=".6" dy=".5" in="shadow" result="offset-2"/>
            <feMerge>
                <feMergeNode in="offset-2"/>
                <feMergeNode in="offset-1"/>
            </feMerge>
        </filter>
    </defs>
    <g filter="url(#editing-hover)">
        <path d="M156.175 62.235q2.27-1.06 4.03-1.35 1.76-.28 3.46-.28t3.42.28q1.73.29 3.81 1.22 2.08.93 3.75 2.37 1.66 1.44 2.94 3.97 1.28 2.52 1.6 5.85 0 1.41-1.28 1.41h-.58q-1.15 0-1.28-1.15-.32-2.69-1.34-4.74-1.02-2.05-2.37-3.13-1.34-1.09-3.07-1.8-2.56-1.08-4.77-1.08-2.21 0-3.65.25-1.44.26-3.23 1.09-1.79.83-3.13 2.21-1.35 1.37-2.28 3.87-.92 2.5-.92 5.76v12.54q0 3.27 1.02 5.76 1.02 2.5 2.46 3.88 1.44 1.37 3.36 2.2 3.08 1.35 5.76 1.35 2.69 0 4.58-.48 1.89-.48 3.74-1.7 3.97-2.49 3.97-9.28 0-1.09.35-1.41.36-.32.93-.32h.51q1.28 0 1.28 1.28 0 3.91-1.24 6.85-1.25 2.95-2.92 4.45-1.66 1.5-3.9 2.4-3.46 1.34-6.05 1.34t-4.48-.32q-1.89-.32-4.22-1.4-2.34-1.09-4.1-2.76-1.76-1.66-2.97-4.7-1.22-3.04-1.22-6.94v-13q0-4.03 1.18-7.1 1.19-3.07 2.88-4.7 1.7-1.64 3.97-2.69zm31.27-3.17h.51q1.21 0 1.21 1.22v35.64q0 6.85 5.83 6.85h1.02q.51 0 .87.39.35.38.35.83v.51q0 1.28-2.31 1.28-4.35 0-6.59-2.5-2.24-2.49-2.17-7.29v-35.71q0-1.22 1.28-1.22zm17.72 25.15q0-5.05 3.08-7.81 3.07-2.75 8-2.75 4.92 0 7.93 2.79 3.01 2.78 3.01 7.77v14.08q0 2.5.42 3.43.41.92 1.63 1.24l.7.2q.96.19.96.83v.7q0 1.09-1.28 1.09-3.13 0-4.29-1.86-1.15-1.85-1.15-5.69v-14.02q0-3.65-2.24-5.6-2.24-1.95-5.69-1.95-3.46 0-5.76 1.95-2.31 1.95-2.31 5.6v10.95q0 3.77 1.89 5.69 1.89 1.92 5.44 1.92 3.55 0 5.86-2.88.44-.57 1.24-.57t1.12.96q.2.76-.19 1.34-2.75 4.16-7.9 4.16t-7.81-2.75q-2.66-2.75-2.66-7.81v-11.01zm32.39-2.08q0-3.61 2.46-6.05 2.47-2.43 7.36-2.43 4.9 0 7.52 2.4 2.63 2.4 2.63 7.07 0 .52-.36.87-.35.35-.86.35h-.58q-.51 0-.86-.35t-.35-.8q0-6.47-7.23-6.47-3.33 0-5.03 1.6-1.69 1.6-1.69 4.04 0 2.43 1.63 3.87t6.17 2.33q4.55.9 7.11 2.82 2.56 1.92 2.56 5.73 0 3.81-2.79 6.33-2.78 2.53-7.74 2.53-4.96 0-8.03-2.53-3.07-2.52-3.07-7.45 0-1.35 1.28-1.35h.51q1.21 0 1.21 1.28 0 6.98 8.26 6.98 3.71 0 5.54-1.7 1.82-1.69 1.82-4.19 0-2.49-1.92-3.61-1.92-1.12-6.69-2.15-4.77-1.02-6.81-3.26-2.05-2.24-2.05-5.86zm29.12 0q0-3.61 2.46-6.05 2.47-2.43 7.36-2.43 4.9 0 7.52 2.4 2.63 2.4 2.63 7.07 0 .52-.36.87-.35.35-.86.35h-.58q-.51 0-.86-.35t-.35-.8q0-6.47-7.23-6.47-3.33 0-5.03 1.6-1.69 1.6-1.69 4.04 0 2.43 1.63 3.87t6.17 2.33q4.55.9 7.11 2.82 2.56 1.92 2.56 5.73 0 3.81-2.79 6.33-2.78 2.53-7.74 2.53-4.96 0-8.03-2.53-3.07-2.52-3.07-7.45 0-1.35 1.28-1.35h.51q1.21 0 1.21 1.28 0 6.98 8.26 6.98 3.71 0 5.54-1.7 1.82-1.69 1.82-4.19 0-2.49-1.92-3.61-1.92-1.12-6.69-2.15-4.77-1.02-6.81-3.26-2.05-2.24-2.05-5.86zm30.14-8.41h1.09q.77 0 1.02.32.26.32.26.96v29.5q0 .58-.38.93-.39.35-.9.35h-1.09q-.51 0-.89-.35-.39-.35-.39-.93v-29.5q0-.84.35-1.06.36-.22.93-.22zm-2.49-14.24q.64-.55 2.94-.55t3.01.61q.7.61.7 2.53v.83q0 2.18-.7 2.75-.71.58-3.01.58t-2.94-.58q-.64-.57-.64-2.75v-.83q0-2.05.64-2.59zm4.41 2.78q0-.64-.29-.86-.28-.23-1.15-.23-.86 0-1.12.19-.25.2-.25.9v.64q0 .7.25.9.26.19 1.15.19.9 0 1.16-.19.25-.2.25-.9v-.64zm15.43 6.66v4.86h6.78q.51 0 .86.38.36.39.36.9v.26q0 .51-.36.89-.35.39-.86.39h-6.78l-.07 27.96q0 1.22-1.21 1.22h-.52q-1.28 0-1.28-1.22l.07-35.71q-.07-4.73 2.46-7.33 2.53-2.59 6.95-2.59 2.88 0 2.88 1.28v.51q0 .45-.36.84-.35.38-.86.38h-1.6q-3.01 0-4.74 1.79-1.72 1.79-1.72 5.19zm-7.17 4.86h1.53q.58 0 .93.38.35.39.35.9v.26q0 .51-.35.89-.35.39-.93.39h-1.53q-.58 0-.93-.39-.35-.38-.35-.89v-.26q0-.51.35-.9.35-.38.93-.38zm43.07 0h.58q1.21 0 1.21 1.28v34.18q0 5.5-2.91 8.38-2.91 2.88-7.9 2.88-5 0-7.72-2.66-2.72-2.65-2.84-7.58 0-1.22 1.21-1.22h.58q1.21 0 1.21 1.22.13 3.52 2.28 5.38 2.14 1.85 5.47 1.85 7.61 0 7.61-8.19v-34.24q0-1.28 1.22-1.28zm-18.94-.13h.51q1.28 0 1.28 1.28v20.23q0 3.77 1.89 5.69 1.88 1.92 5.34 1.92t5.95-2.75q.58-.7 1.22-.7 1.21 0 1.21 1.4 0 .58-.32 1.03-1.28 1.79-3.58 2.91t-4.86 1.12q-4.42 0-7.14-2.78-2.72-2.79-2.72-7.78v-20.29q0-1.28 1.22-1.28z" fill="#b93cd7"/>
    </g>
    <style></style>
</svg>