<svg width="257.915" height="126.42" xmlns="http://www.w3.org/2000/svg" viewBox="121.042 11.79 257.915 126.42" style="background:#fff" preserveAspectRatio="xMidYMid"><defs><filter id="editing-hover" x="-100%" y="-100%" width="300%" height="300%"><feFlood flood-color="rgba(1.9607843137254888%,16.862745098039188%,29.01960784313726%,0.396)" result="flood"/><feComposite operator="in" in2="SourceAlpha" in="flood" result="shadow"/><feOffset dx="-.6" dy="-.5" in="SourceGraphic" result="offset-1"/><feOffset dx=".6" dy=".5" in="shadow" result="offset-2"/><feMerge><feMergeNode in="offset-2"/><feMergeNode in="offset-1"/></feMerge></filter></defs><g filter="url(#editing-hover)"><path d="M168.105 53.625h10.37q9.47 0 12.61 4.61 1.6 2.3 2.18 5.09.57 2.78.57 7v12.29q0 8.19-3.42 12-3.43 3.81-11.55 3.81h-10.69q-2.56 0-2.56-2.62v-39.62q0-1.41.54-1.98.55-.58 1.95-.58zm10.37 3.14h-9.66v38.52h10.05q6.08 0 8.96-2.88 2.88-2.88 2.88-9.4v-12.87q0-7.04-2.56-10.21-2.56-3.16-9.67-3.16zm25.79 20.09q0-5.05 3.08-7.81 3.07-2.75 8-2.75 4.92 0 7.93 2.79 3.01 2.78 3.01 7.77v3.84q0 2.75-2.62 2.75h-13.83q-.57 0-.93-.38-.35-.38-.35-.9v-.51q0-.51.35-.89.36-.39.93-.39h13.44v-3.45q0-3.65-2.24-5.6-2.24-1.96-5.69-1.96-3.46 0-5.73 1.96-2.27 1.95-2.27 5.6v11q0 3.65 2.27 5.6 2.27 1.96 5.69 1.96 3.43 0 5.7-1.89t2.27-5.41q0-.51.35-.9.36-.38.87-.38h.51q.58 0 .93.38.35.39.35.9-.06 4.93-3.07 7.65-3.01 2.72-7.87 2.72-4.87 0-7.97-2.79-3.11-2.78-3.11-7.77v-11.14zm34.12-25.15h.51q1.21 0 1.21 1.22l-.19 35.64q.07 3.27 1.83 5.06 1.76 1.79 4.64 1.79h1.6q.51 0 .86.39.35.38.35.83v.51q0 1.28-2.88 1.28-4.22 0-6.78-2.59-2.56-2.59-2.63-7.2l.2-35.71q.12-1.22 1.28-1.22zm-4.93 14.72h1.53q.58 0 .93.38.35.39.35.9v.38q0 .52-.35.9t-.93.38h-1.53q-.58 0-.93-.38-.35-.38-.35-.9v-.38q0-.51.35-.9.35-.38.93-.38zm8.57 0h4.74q.51 0 .86.38.36.39.36.9v.38q0 .52-.36.9-.35.38-.86.38h-4.74q-.51 0-.89-.38-.39-.38-.39-.9v-.38q0-.51.39-.9.38-.38.89-.38zm15.11 10.43q0-5.05 3.07-7.81 3.07-2.75 8-2.75t7.94 2.79q3 2.78 3 7.77v3.84q0 2.75-2.62 2.75h-13.82q-.58 0-.93-.38-.35-.38-.35-.9v-.51q0-.51.35-.89.35-.39.93-.39h13.44v-3.45q0-3.65-2.24-5.6-2.24-1.96-5.7-1.96t-5.73 1.96q-2.27 1.95-2.27 5.6v11q0 3.65 2.27 5.6 2.27 1.96 5.7 1.96 3.42 0 5.69-1.89 2.28-1.89 2.28-5.41 0-.51.35-.9.35-.38.86-.38h.51q.58 0 .93.38.35.39.35.9-.06 4.93-3.07 7.65-3.01 2.72-7.87 2.72t-7.97-2.79q-3.1-2.78-3.1-7.77v-11.14zm31.36 0q0-5.05 3.07-7.81 3.07-2.75 8-2.75t7.94 2.79q3 2.78 3 7.77 0 1.22-1.28 1.22h-.51q-1.21 0-1.21-1.22 0-3.65-2.24-5.57-2.24-1.92-5.7-1.92t-5.73 1.96q-2.27 1.95-2.27 5.6v11q0 3.65 2.27 5.6 2.27 1.96 5.73 1.96 3.46 0 5.66-1.89 2.21-1.89 2.28-5.41 0-.51.35-.9.35-.38.86-.38h.51q.58 0 .93.38.35.39.35.9-.12 4.86-3.13 7.62-3.01 2.75-7.84 2.75t-7.94-2.79q-3.1-2.78-3.1-7.77v-11.14zm35.07-25.15h.51q1.22 0 1.22 1.22l-.19 35.64q.06 3.27 1.82 5.06 1.76 1.79 4.64 1.79h1.6q.51 0 .86.39.36.38.36.83v.51q0 1.28-2.88 1.28-4.23 0-6.79-2.59-2.56-2.59-2.62-7.2l.19-35.71q.13-1.22 1.28-1.22zm-4.93 14.72h1.54q.57 0 .93.38.35.39.35.9v.38q0 .52-.35.9-.36.38-.93.38h-1.54q-.57 0-.93-.38-.35-.38-.35-.9v-.38q0-.51.35-.9.36-.38.93-.38zm8.58 0h4.73q.52 0 .87.38.35.39.35.9v.38q0 .52-.35.9t-.87.38h-4.73q-.51 0-.9-.38-.38-.38-.38-.9v-.38q0-.51.38-.9.39-.38.9-.38z" fill="#b93cd7"/></g><style></style></svg>