<svg width="176.358" height="126.42" xmlns="http://www.w3.org/2000/svg" viewBox="161.821 11.79 176.358 126.42" style="background:#fff" preserveAspectRatio="xMidYMid"><defs><filter id="editing-hover" x="-100%" y="-100%" width="300%" height="300%"><feFlood flood-color="rgba(1.9607843137254888%,16.862745098039188%,29.01960784313726%,0.396)" result="flood"/><feComposite operator="in" in2="SourceAlpha" in="flood" result="shadow"/><feOffset dx="-.6" dy="-.5" in="SourceGraphic" result="offset-1"/><feOffset dx=".6" dy=".5" in="shadow" result="offset-2"/><feMerge><feMergeNode in="offset-2"/><feMergeNode in="offset-1"/></feMerge></filter></defs><g filter="url(#editing-hover)"><path d="M197.2 53.69h.57q.51 0 .9.38.38.39.38.9v42.24q0 .51-.38.9-.39.38-.9.38h-.57q-.58 0-.93-.38-.35-.39-.35-.9V54.97q0-.51.35-.9.35-.38.93-.38zm22.65 12.67q4.8 0 7.36 2.53 2.56 2.53 2.56 7.39v20.93q0 1.28-1.21 1.28h-.52q-1.28 0-1.28-1.28V76.99q0-7.62-6.97-7.62-3.65 0-6.21 2.88-.7.58-1.22.58-1.15 0-1.21-1.28 0-.52.25-1.03 1.35-1.85 3.59-3.01 2.24-1.15 4.86-1.15zm-10.81.19h.51q.51 0 .89.36.39.35.39.92v29.38q0 .58-.39.93-.38.35-.89.35h-.51q-.52 0-.9-.35t-.38-.93V67.83q0-.57.38-.92.38-.36.9-.36zm35.71-4.92v4.86h6.78q.51 0 .87.38.35.39.35.9v.26q0 .51-.35.89-.36.39-.87.39h-6.78l-.07 27.96q0 1.22-1.21 1.22h-.51q-1.28 0-1.28-1.22l.06-35.71q-.06-4.73 2.46-7.33 2.53-2.59 6.95-2.59 2.88 0 2.88 1.28v.51q0 .45-.35.84-.36.38-.87.38h-1.6q-3.01 0-4.73 1.79-1.73 1.79-1.73 5.19zm-7.17 4.86h1.54q.57 0 .92.38.36.39.36.9v.26q0 .51-.36.89-.35.39-.92.39h-1.54q-.58 0-.93-.39-.35-.38-.35-.89v-.26q0-.51.35-.9.35-.38.93-.38zm23.04 10.43q0-5.05 3.07-7.81 3.07-2.75 8-2.75t7.94 2.79q3.01 2.78 3.01 7.77v3.84q0 2.75-2.63 2.75h-13.82q-.58 0-.93-.38-.35-.38-.35-.9v-.51q0-.51.35-.89.35-.39.93-.39h13.44v-3.45q0-3.65-2.24-5.6-2.24-1.96-5.7-1.96-3.45 0-5.73 1.96-2.27 1.95-2.27 5.6v11q0 3.65 2.27 5.6 2.28 1.96 5.7 1.96 3.42 0 5.7-1.89 2.27-1.89 2.27-5.41 0-.51.35-.9.35-.38.86-.38h.52q.57 0 .92.38.36.39.36.9-.07 4.93-3.08 7.65-3 2.72-7.87 2.72-4.86 0-7.97-2.79-3.1-2.78-3.1-7.77V76.92zm42.24-10.56q1.22 0 1.22 1.28v.45q0 .51-.36.9-.35.38-.86.38-3.65 0-5.82 1.86-2.18 1.85-2.18 5.69v20.29q0 .58-.38.93-.39.35-.9.35h-.45q-.51 0-.89-.35-.39-.35-.39-.93V76.92q0-5.25 2.95-7.9 2.94-2.66 8.06-2.66z" fill="#b93cd7"/></g><style></style></svg>