<svg width="332.078" height="126.42" xmlns="http://www.w3.org/2000/svg" viewBox="83.961 11.79 332.078 126.42" style="background:#fff" preserveAspectRatio="xMidYMid"><defs><filter id="editing-hover" x="-100%" y="-100%" width="300%" height="300%"><feFlood flood-color="rgba(1.9607843137254888%,16.862745098039188%,29.01960784313726%,0.396)" result="flood"/><feComposite operator="in" in2="SourceAlpha" in="flood" result="shadow"/><feOffset dx="-.6" dy="-.5" in="SourceGraphic" result="offset-1"/><feOffset dx=".6" dy=".5" in="shadow" result="offset-2"/><feMerge><feMergeNode in="offset-2"/><feMergeNode in="offset-1"/></feMerge></filter></defs><g filter="url(#editing-hover)"><path d="M147.31 63.125q2.3-.99 4.03-1.24 1.73-.26 3.55-.26 1.83 0 3.62.29t4.06 1.31q2.28 1.02 3.94 2.66 1.66 1.63 2.82 4.6 1.15 2.98 1.15 6.88v13q0 4.03-1.19 7.1-1.18 3.07-2.88 4.74-1.69 1.66-3.93 2.68-3.59 1.6-7.55 1.6-4.16 0-7.08-1.4-2.91-1.41-4.57-3.08-1.67-1.66-2.82-4.7t-1.15-6.94v-13q0-4.03 1.18-7.04 1.19-3 2.85-4.6 1.67-1.6 3.97-2.6zm13.6 2.88q-1.82-.8-3.2-1.02-1.38-.22-2.82-.22t-2.84.22q-1.41.22-3.24 1.02-1.82.8-3.16 2.12-1.35 1.31-2.28 3.77-.92 2.47-.92 5.73v12.54q0 3.27.92 5.76.93 2.5 2.31 3.88 1.37 1.37 3.17 2.2 1.79.84 3.23 1.09 1.44.26 2.85.26 1.4 0 2.84-.26 1.44-.25 3.24-1.09 1.79-.83 3.13-2.2 1.35-1.38 2.27-3.88.93-2.49.93-5.76v-12.54q0-3.26-.96-5.73-.96-2.46-2.3-3.77-1.35-1.32-3.17-2.12zm17.7 18.85q0-4.99 3.04-7.77 3.04-2.79 7.93-2.79 4.9 0 7.97 2.75 3.07 2.76 3.07 7.81v11.14q0 4.93-3.07 7.74-3.07 2.82-7.97 2.82-4.89 0-7.97-2.63v17.28q0 1.22-1.21 1.22h-.58q-1.21 0-1.21-1.22v-36.35zm16.73-5.57q-2.27-1.92-5.73-1.92-3.45 0-5.72 1.96-2.28 1.95-2.28 5.6v15.55q3.91 3.01 7.68 3.01 3.78 0 6.05-1.99 2.27-1.98 2.27-5.63v-10.94q0-3.72-2.27-5.64zm19.43-19.58h.51q1.21 0 1.21 1.22l-.19 35.64q.07 3.27 1.83 5.06 1.76 1.79 4.64 1.79h1.6q.51 0 .86.39.35.38.35.83v.51q0 1.28-2.88 1.28-4.22 0-6.78-2.59-2.56-2.59-2.63-7.2l.2-35.71q.12-1.22 1.28-1.22zm-4.93 14.72h1.53q.58 0 .93.38.35.39.35.9v.38q0 .52-.35.9t-.93.38h-1.53q-.58 0-.93-.38-.35-.38-.35-.9v-.38q0-.51.35-.9.35-.38.93-.38zm8.57 0h4.74q.51 0 .86.38.36.39.36.9v.38q0 .52-.36.9-.35.38-.86.38h-4.74q-.51 0-.89-.38-.39-.38-.39-.9v-.38q0-.51.39-.9.38-.38.89-.38zm16.45-.06h1.09q.77 0 1.02.32.26.32.26.96v29.5q0 .58-.38.93-.39.35-.9.35h-1.09q-.51 0-.89-.35-.39-.35-.39-.93v-29.5q0-.84.35-1.06.36-.22.93-.22zm-2.49-14.24q.64-.55 2.94-.55t3.01.61q.7.61.7 2.53v.83q0 2.18-.7 2.75-.71.58-3.01.58t-2.94-.58q-.64-.57-.64-2.75v-.83q0-2.05.64-2.59zm4.41 2.78q0-.64-.29-.86-.28-.23-1.15-.23-.86 0-1.12.19-.25.2-.25.9v.64q0 .7.25.9.26.19 1.15.19.9 0 1.16-.19.25-.2.25-.9v-.64zm40.19 11.39q4.74 0 7.3 2.75 2.56 2.76 2.56 7.81v20.29q0 1.28-1.22 1.28h-.51q-1.28 0-1.28-1.28v-20.22q0-3.78-1.79-5.7-1.79-1.92-5.28-1.92t-6.11 2.88q-.71.58-1.22.58-1.15 0-1.21-1.28 0-.52.25-1.03 1.35-1.85 3.59-3.01 2.24-1.15 4.92-1.15zm-29.44.19h.52q.51 0 .89.36.39.35.39.92v29.38q0 .58-.39.93-.38.35-.89.35h-.52q-1.21 0-1.21-1.28v-29.38q0-1.28 1.21-1.28zm2.37 3.97q2.95-4.16 8-4.16 5.06 0 7.62 2.75 2.56 2.76 2.56 7.81v20.29q0 1.28-1.22 1.28h-.51q-1.28 0-1.28-1.28v-20.22q0-3.78-1.79-5.7-1.79-1.92-5.22-1.92-3.42 0-5.98 2.88-.71.58-1.22.58-1.15 0-1.21-1.28 0-.52.25-1.03zm47.87-4.09h1.09q.77 0 1.03.32.25.32.25.96v29.5q0 .58-.38.93-.39.35-.9.35h-1.09q-.51 0-.89-.35-.39-.35-.39-.93v-29.5q0-.84.36-1.06.35-.22.92-.22zm-2.49-14.24q.64-.55 2.94-.55 2.31 0 3.01.61.7.61.7 2.53v.83q0 2.18-.7 2.75-.7.58-3.01.58-2.3 0-2.94-.58-.64-.57-.64-2.75v-.83q0-2.05.64-2.59zm4.41 2.78q0-.64-.28-.86-.29-.23-1.16-.23-.86 0-1.12.19-.25.2-.25.9v.64q0 .7.25.9.26.19 1.16.19.89 0 1.15-.19.25-.2.25-.9v-.64zm10.05 11.52h16.96q2.56 0 2.56 2.24 0 .96-1.09 2.43l-16.12 24.32h16.32q1.21 0 1.21 1.22v.51q0 1.28-1.21 1.28h-17.54q-1.09 0-1.73-.64-.64-.64-.64-1.6 0-.96 1.09-2.5l15.94-24.25h-15.75q-1.21 0-1.21-1.22v-.51q0-1.28 1.21-1.28zm28.93 10.43q0-5.05 3.07-7.81 3.07-2.75 8-2.75t7.94 2.79q3.01 2.78 3.01 7.77v3.84q0 2.75-2.63 2.75h-13.82q-.58 0-.93-.38-.35-.38-.35-.9v-.51q0-.51.35-.89.35-.39.93-.39h13.44v-3.45q0-3.65-2.24-5.6-2.24-1.96-5.7-1.96-3.45 0-5.73 1.96-2.27 1.95-2.27 5.6v11q0 3.65 2.27 5.6 2.28 1.96 5.7 1.96 3.42 0 5.7-1.89 2.27-1.89 2.27-5.41 0-.51.35-.9.35-.38.86-.38h.52q.57 0 .92.38.36.39.36.9-.07 4.93-3.08 7.65-3 2.72-7.87 2.72-4.86 0-7.97-2.79-3.1-2.78-3.1-7.77v-11.14z" fill="#b93cd7"/></g><style></style></svg>