<svg width="426.045" height="126.42" xmlns="http://www.w3.org/2000/svg" viewBox="36.978 11.79 426.045 126.42" style="background:#fff" preserveAspectRatio="xMidYMid"><defs><filter id="editing-hover" x="-100%" y="-100%" width="300%" height="300%"><feFlood flood-color="rgba(1.9607843137254888%,16.862745098039188%,29.01960784313726%,0.396)" result="flood"/><feComposite operator="in" in2="SourceAlpha" in="flood" result="shadow"/><feOffset dx="-.6" dy="-.5" in="SourceGraphic" result="offset-1"/><feOffset dx=".6" dy=".5" in="shadow" result="offset-2"/><feMerge><feMergeNode in="offset-2"/><feMergeNode in="offset-1"/></feMerge></filter></defs><g filter="url(#editing-hover)"><path d="M107.69 53.72h9.92q4.48 0 8.26 2.43 1.98 1.28 3.2 3.71 1.21 2.44 1.21 5.76 0 5.06-2.94 8.48-2.94 3.43-10.24 3.43h-4.22q-.58 0-.93-.39-.35-.38-.35-.89v-.58q0-1.28 1.28-1.28h3.45q6.98 0 9.03-2.94 1.72-2.43 1.72-5.89 0-4.54-2.91-6.59t-6.88-2.05h-9.21v40.32q0 .51-.39.9-.38.38-.89.38h-.64q-.52 0-.9-.38-.38-.39-.38-.9v-40.7q0-1.67.57-2.24.58-.58 2.24-.58zm30.08 23.23q0-5.05 3.07-7.81 3.08-2.75 8-2.75 4.93 0 7.94 2.79 3.01 2.78 3.01 7.77v3.84q0 2.75-2.63 2.75h-13.82q-.58 0-.93-.38-.35-.38-.35-.9v-.51q0-.51.35-.89.35-.39.93-.39h13.44v-3.45q0-3.65-2.24-5.6-2.24-1.96-5.7-1.96-3.45 0-5.72 1.96-2.28 1.95-2.28 5.6v11q0 3.65 2.28 5.6 2.27 1.96 5.69 1.96 3.43 0 5.7-1.89t2.27-5.41q0-.51.35-.9.35-.38.87-.38h.51q.57 0 .93.38.35.39.35.9-.07 4.93-3.07 7.65-3.01 2.72-7.88 2.72-4.86 0-7.96-2.79-3.11-2.78-3.11-7.77V76.95zm42.24-10.56q1.22 0 1.22 1.28v.45q0 .51-.35.9-.36.38-.87.38-3.65 0-5.82 1.86-2.18 1.85-2.18 5.69v20.29q0 .58-.38.93-.39.35-.9.35h-.45q-.51 0-.89-.35-.39-.35-.39-.93V76.95q0-5.25 2.95-7.9 2.94-2.66 8.06-2.66zm8.07 8.48q0-3.61 2.46-6.05 2.46-2.43 7.36-2.43t7.52 2.4q2.62 2.4 2.62 7.07 0 .52-.35.87t-.86.35h-.58q-.51 0-.86-.35t-.35-.8q0-6.47-7.24-6.47-3.32 0-5.02 1.6-1.7 1.6-1.7 4.04 0 2.43 1.64 3.87 1.63 1.44 6.17 2.33 4.55.9 7.11 2.82 2.56 1.92 2.56 5.73 0 3.81-2.79 6.33-2.78 2.53-7.74 2.53-4.96 0-8.03-2.53-3.08-2.52-3.08-7.45 0-1.35 1.28-1.35h.52q1.21 0 1.21 1.28 0 6.98 8.26 6.98 3.71 0 5.53-1.7 1.83-1.69 1.83-4.19 0-2.49-1.92-3.61-1.92-1.12-6.69-2.15-4.77-1.02-6.82-3.26-2.04-2.24-2.04-5.86zm28.8 2.08q0-5.05 3.07-7.81 3.07-2.75 8-2.75t7.93 2.79q3.01 2.78 3.01 7.77v11.14q0 4.99-3.01 7.77-3 2.79-7.9 2.79t-8-2.79q-3.1-2.78-3.1-7.77V76.95zm19 0q0-3.65-2.24-5.6-2.24-1.95-5.69-1.95-3.46 0-5.76 1.95-2.31 1.95-2.31 5.6v11.14q0 3.65 2.31 5.6 2.3 1.95 5.76 1.95 3.45 0 5.69-1.95t2.24-5.6V76.95zm24.64-10.56q4.8 0 7.36 2.53 2.56 2.53 2.56 7.39v20.93q0 1.28-1.21 1.28h-.51q-1.28 0-1.28-1.28V77.02q0-7.62-6.98-7.62-3.65 0-6.21 2.88-.7.58-1.21.58-1.16 0-1.22-1.28 0-.52.26-1.03 1.34-1.85 3.58-3.01 2.24-1.15 4.86-1.15zm-10.81.19h.51q.51 0 .9.36.38.35.38.92v29.38q0 .58-.38.93-.39.35-.9.35h-.51q-.51 0-.9-.35-.38-.35-.38-.93V67.86q0-.57.38-.92.39-.36.9-.36zm30.27 10.37q0-5.05 3.07-7.81 3.07-2.75 8-2.75t7.94 2.79q3.01 2.78 3.01 7.77v14.08q0 2.5.41 3.43.42.92 1.63 1.24l.71.2q.96.19.96.83v.7q0 1.09-1.28 1.09-3.14 0-4.29-1.86-1.15-1.85-1.15-5.69V76.95q0-3.65-2.24-5.6-2.24-1.95-5.7-1.95-3.45 0-5.76 1.95-2.3 1.95-2.3 5.6V87.9q0 3.77 1.89 5.69 1.88 1.92 5.44 1.92 3.55 0 5.85-2.88.45-.57 1.25-.57t1.12.96q.19.76-.19 1.34-2.75 4.16-7.91 4.16-5.15 0-7.8-2.75-2.66-2.75-2.66-7.81V76.95zm33.34-25.15h.52q1.21 0 1.21 1.22v35.64q0 6.85 5.83 6.85h1.02q.51 0 .86.39.36.38.36.83v.51q0 1.28-2.31 1.28-4.35 0-6.59-2.5-2.24-2.49-2.18-7.29V53.02q0-1.22 1.28-1.22zm18.88 14.66h1.09q.77 0 1.03.32.25.32.25.96v29.5q0 .58-.38.93-.39.35-.9.35h-1.09q-.51 0-.89-.35-.39-.35-.39-.93v-29.5q0-.84.36-1.06.35-.22.92-.22zm-2.49-14.24q.64-.55 2.94-.55 2.31 0 3.01.61.7.61.7 2.53v.83q0 2.18-.7 2.75-.7.58-3.01.58-2.3 0-2.94-.58-.64-.57-.64-2.75v-.83q0-2.05.64-2.59zm4.41 2.78q0-.64-.28-.86-.29-.23-1.16-.23-.86 0-1.12.19-.25.2-.25.9v.64q0 .7.25.9.26.19 1.16.19.89 0 1.15-.19.25-.2.25-.9V55zm10.05 11.52h16.96q2.56 0 2.56 2.24 0 .96-1.09 2.43l-16.12 24.32h16.32q1.21 0 1.21 1.22v.51q0 1.28-1.21 1.28h-17.54q-1.09 0-1.73-.64-.64-.64-.64-1.6 0-.96 1.09-2.5l15.94-24.25h-15.75q-1.21 0-1.21-1.22v-.51q0-1.28 1.21-1.28zm28.93 10.43q0-5.05 3.07-7.81 3.07-2.75 8-2.75t7.94 2.79q3.01 2.78 3.01 7.77v3.84q0 2.75-2.63 2.75h-13.82q-.58 0-.93-.38-.35-.38-.35-.9v-.51q0-.51.35-.89.35-.39.93-.39h13.44v-3.45q0-3.65-2.24-5.6-2.24-1.96-5.7-1.96-3.45 0-5.73 1.96-2.27 1.95-2.27 5.6v11q0 3.65 2.27 5.6 2.28 1.96 5.7 1.96 3.42 0 5.7-1.89 2.27-1.89 2.27-5.41 0-.51.35-.9.35-.38.86-.38h.52q.57 0 .92.38.36.39.36.9-.07 4.93-3.08 7.65-3 2.72-7.87 2.72-4.86 0-7.97-2.79-3.1-2.78-3.1-7.77V76.95z" fill="#b93cd7"/></g><style></style></svg>