<svg width="266.712" height="126.42" xmlns="http://www.w3.org/2000/svg" viewBox="116.644 11.79 266.712 126.42" style="background:#fff" preserveAspectRatio="xMidYMid"><defs><filter id="editing-hover" x="-100%" y="-100%" width="300%" height="300%"><feFlood flood-color="rgba(1.9607843137254888%,16.862745098039188%,29.01960784313726%,0.396)" result="flood"/><feComposite operator="in" in2="SourceAlpha" in="flood" result="shadow"/><feOffset dx="-.6" dy="-.5" in="SourceGraphic" result="offset-1"/><feOffset dx=".6" dy=".5" in="shadow" result="offset-2"/><feMerge><feMergeNode in="offset-2"/><feMergeNode in="offset-1"/></feMerge></filter></defs><g filter="url(#editing-hover)"><path d="M165.58 53.69h9.92q4.48 0 8.26 2.43 1.98 1.28 3.2 3.71 1.21 2.44 1.21 5.76 0 5.06-2.94 8.48-2.94 3.43-10.24 3.43h-4.22q-.58 0-.93-.39-.35-.38-.35-.89v-.58q0-1.28 1.28-1.28h3.45q6.98 0 9.03-2.94 1.72-2.43 1.72-5.89 0-4.54-2.91-6.59t-6.88-2.05h-9.21v40.32q0 .51-.39.9-.38.38-.89.38h-.64q-.52 0-.9-.38-.38-.39-.38-.9v-40.7q0-1.67.57-2.24.58-.58 2.24-.58zm40.96 12.67q1.22 0 1.22 1.28v.45q0 .51-.35.9-.36.38-.87.38-3.65 0-5.82 1.86-2.18 1.85-2.18 5.69v20.29q0 .58-.38.93-.39.35-.9.35h-.45q-.51 0-.89-.35-.39-.35-.39-.93V76.92q0-5.25 2.95-7.9 2.94-2.66 8.06-2.66zm7.75 10.56q0-5.05 3.07-7.81 3.07-2.75 8-2.75t7.93 2.79q3.01 2.78 3.01 7.77v3.84q0 2.75-2.62 2.75h-13.83q-.57 0-.92-.38-.36-.38-.36-.9v-.51q0-.51.36-.89.35-.39.92-.39h13.44v-3.45q0-3.65-2.24-5.6-2.24-1.96-5.69-1.96-3.46 0-5.73 1.96-2.27 1.95-2.27 5.6v11q0 3.65 2.27 5.6 2.27 1.96 5.7 1.96 3.42 0 5.69-1.89 2.27-1.89 2.27-5.41 0-.51.36-.9.35-.38.86-.38h.51q.58 0 .93.38.35.39.35.9-.06 4.93-3.07 7.65-3.01 2.72-7.87 2.72-4.87 0-7.97-2.79-3.1-2.78-3.1-7.77V76.92zM266 51.64h.77q1.15 0 1.15 1.22v35.2q0 4.99-3.04 7.77-3.04 2.79-7.97 2.79t-8-2.75q-3.07-2.76-3.07-7.81V76.92q0-4.93 3.07-7.68t8-2.75q2.05 0 4.38.77 2.34.77 3.56 1.73V52.86q0-1.22 1.15-1.22zm-1.15 36.35V72.51q-3.72-2.95-7.56-2.95-3.84 0-6.11 1.92-2.27 1.92-2.27 5.57v10.94q0 3.72 2.27 5.64 2.27 1.92 5.73 1.92 3.46 0 5.7-1.96 2.24-1.95 2.24-5.6zm14.78-21.56h1.09q.77 0 1.02.32.26.32.26.96v29.5q0 .58-.39.93-.38.35-.89.35h-1.09q-.51 0-.9-.35-.38-.35-.38-.93v-29.5q0-.84.35-1.06.35-.22.93-.22zm-2.5-14.24q.64-.55 2.95-.55 2.3 0 3.01.61.7.61.7 2.53v.83q0 2.18-.7 2.75-.71.58-3.01.58-2.31 0-2.95-.58-.64-.57-.64-2.75v-.83q0-2.05.64-2.59zm4.42 2.78q0-.64-.29-.86-.29-.23-1.15-.23-.86 0-1.12.19-.26.2-.26.9v.64q0 .7.26.9.26.19 1.15.19.9 0 1.15-.19.26-.2.26-.9v-.64zm9.79 21.95q0-5.05 3.07-7.81 3.08-2.75 8-2.75 4.93 0 7.94 2.79 3.01 2.78 3.01 7.77 0 1.22-1.28 1.22h-.51q-1.22 0-1.22-1.22 0-3.65-2.24-5.57-2.24-1.92-5.7-1.92-3.45 0-5.72 1.96-2.28 1.95-2.28 5.6v11q0 3.65 2.28 5.6 2.27 1.96 5.72 1.96 3.46 0 5.67-1.89t2.27-5.41q0-.51.35-.9.35-.38.87-.38h.51q.57 0 .93.38.35.39.35.9-.13 4.86-3.14 7.62-3.01 2.75-7.84 2.75t-7.93-2.79q-3.11-2.78-3.11-7.77V76.92zm35.07-25.15h.52q1.21 0 1.21 1.22l-.19 35.64q.06 3.27 1.82 5.06 1.76 1.79 4.64 1.79h1.6q.52 0 .87.39.35.38.35.83v.51q0 1.28-2.88 1.28-4.22 0-6.78-2.59-2.56-2.59-2.63-7.2l.19-35.71q.13-1.22 1.28-1.22zm-4.92 14.72h1.53q.58 0 .93.38.35.39.35.9v.38q0 .52-.35.9t-.93.38h-1.53q-.58 0-.93-.38-.35-.38-.35-.9v-.38q0-.51.35-.9.35-.38.93-.38zm8.57 0h4.74q.51 0 .86.38.35.39.35.9v.38q0 .52-.35.9t-.86.38h-4.74q-.51 0-.89-.38-.39-.38-.39-.9v-.38q0-.51.39-.9.38-.38.89-.38z" fill="#b93cd7"/></g><style></style></svg>