<svg width="192.168" height="126.42" xmlns="http://www.w3.org/2000/svg" viewBox="153.916 11.79 192.168 126.42" style="background:#fff" preserveAspectRatio="xMidYMid"><defs><filter id="editing-hover" x="-100%" y="-100%" width="300%" height="300%"><feFlood flood-color="rgba(1.9607843137254888%,16.862745098039188%,29.01960784313726%,0.396)" result="flood"/><feComposite operator="in" in2="SourceAlpha" in="flood" result="shadow"/><feOffset dx="-.6" dy="-.5" in="SourceGraphic" result="offset-1"/><feOffset dx=".6" dy=".5" in="shadow" result="offset-2"/><feMerge><feMergeNode in="offset-2"/><feMergeNode in="offset-1"/></feMerge></filter></defs><g filter="url(#editing-hover)"><path d="M204.395 58.485h.64q1.28 0 1.28 1.22v37.44q0 .51-.35.9-.35.38-.93.38h-.64q-.57 0-.92-.38-.36-.39-.36-.9v-37.44q0-1.22 1.28-1.22zm-13.82-4.86h28.42q.57 0 .92.38.36.39.36.9v.7q0 1.16-1.28 1.16h-28.42q-1.28 0-1.28-1.16v-.7q0-.51.38-.9.39-.38.9-.38zm45.76 12.67q1.22 0 1.22 1.28v.45q0 .51-.36.9-.35.38-.86.38-3.65 0-5.82 1.86-2.18 1.85-2.18 5.69v20.29q0 .58-.38.93-.39.35-.9.35h-.45q-.51 0-.89-.35-.39-.35-.39-.93v-20.29q0-5.25 2.95-7.9 2.94-2.66 8.06-2.66zm7.94 10.56q0-5.05 3.07-7.81 3.07-2.75 8-2.75t7.93 2.79q3.01 2.78 3.01 7.77v14.08q0 2.5.42 3.43.41.92 1.63 1.24l.7.2q.96.19.96.83v.7q0 1.09-1.28 1.09-3.13 0-4.28-1.86-1.16-1.85-1.16-5.69v-14.02q0-3.65-2.24-5.6-2.24-1.95-5.69-1.95-3.46 0-5.76 1.95-2.31 1.95-2.31 5.6v10.95q0 3.77 1.89 5.69 1.89 1.92 5.44 1.92 3.55 0 5.86-2.88.45-.57 1.25-.57t1.12.96q.19.76-.2 1.34-2.75 4.16-7.9 4.16t-7.81-2.75q-2.65-2.75-2.65-7.81v-11.01zm33.4-10.49h1.09q.77 0 1.03.32.25.32.25.96v29.5q0 .58-.38.93-.39.35-.9.35h-1.09q-.51 0-.89-.35-.39-.35-.39-.93v-29.5q0-.84.36-1.06.35-.22.92-.22zm-2.49-14.24q.64-.55 2.94-.55 2.31 0 3.01.61.7.61.7 2.53v.83q0 2.18-.7 2.75-.7.58-3.01.58-2.3 0-2.94-.58-.64-.57-.64-2.75v-.83q0-2.05.64-2.59zm4.41 2.78q0-.64-.28-.86-.29-.23-1.16-.23-.86 0-1.12.19-.25.2-.25.9v.64q0 .7.25.9.26.19 1.16.19.89 0 1.15-.19.25-.2.25-.9v-.64zm21.19 11.39q4.8 0 7.36 2.53 2.56 2.53 2.56 7.39v20.93q0 1.28-1.22 1.28h-.51q-1.28 0-1.28-1.28v-20.22q0-7.62-6.98-7.62-3.64 0-6.2 2.88-.71.58-1.22.58-1.15 0-1.22-1.28 0-.52.26-1.03 1.34-1.85 3.58-3.01 2.24-1.15 4.87-1.15zm-10.82.19h.51q.52 0 .9.36.38.35.38.92v29.38q0 .58-.38.93-.38.35-.9.35h-.51q-.51 0-.89-.35-.39-.35-.39-.93v-29.38q0-.57.39-.92.38-.36.89-.36z" fill="#b93cd7"/></g><style></style></svg>