<svg width="380.272" height="126.42" xmlns="http://www.w3.org/2000/svg" viewBox="59.864 11.79 380.272 126.42" style="background:#fff" preserveAspectRatio="xMidYMid"><defs><filter id="editing-hover" x="-100%" y="-100%" width="300%" height="300%"><feFlood flood-color="rgba(1.9607843137254888%,16.862745098039188%,29.01960784313726%,0.396)" result="flood"/><feComposite operator="in" in2="SourceAlpha" in="flood" result="shadow"/><feOffset dx="-.6" dy="-.5" in="SourceGraphic" result="offset-1"/><feOffset dx=".6" dy=".5" in="shadow" result="offset-2"/><feMerge><feMergeNode in="offset-2"/><feMergeNode in="offset-1"/></feMerge></filter></defs><g filter="url(#editing-hover)"><path d="M135.37 58.58h.64q1.28 0 1.28 1.22v37.44q0 .51-.35.9-.35.38-.93.38h-.64q-.57 0-.92-.38-.36-.39-.36-.9V59.8q0-1.22 1.28-1.22zm-13.82-4.86h28.42q.57 0 .92.38.36.39.36.9v.7q0 1.16-1.28 1.16h-28.42q-1.28 0-1.28-1.16V55q0-.51.38-.9.39-.38.9-.38zm45.76 12.67q1.22 0 1.22 1.28v.45q0 .51-.36.9-.35.38-.86.38-3.65 0-5.82 1.86-2.18 1.85-2.18 5.69v20.29q0 .58-.38.93-.39.35-.9.35h-.45q-.51 0-.89-.35-.39-.35-.39-.93V76.95q0-5.25 2.95-7.9 2.94-2.66 8.06-2.66zm7.94 10.56q0-5.05 3.07-7.81 3.07-2.75 8-2.75t7.93 2.79q3.01 2.78 3.01 7.77v14.08q0 2.5.42 3.43.41.92 1.63 1.24l.7.2q.96.19.96.83v.7q0 1.09-1.28 1.09-3.13 0-4.28-1.86-1.16-1.85-1.16-5.69V76.95q0-3.65-2.24-5.6-2.24-1.95-5.69-1.95-3.46 0-5.76 1.95-2.31 1.95-2.31 5.6V87.9q0 3.77 1.89 5.69 1.89 1.92 5.44 1.92 3.55 0 5.86-2.88.45-.57 1.25-.57t1.12.96q.19.76-.2 1.34-2.75 4.16-7.9 4.16t-7.81-2.75q-2.65-2.75-2.65-7.81V76.95zm43.45-10.56q4.8 0 7.36 2.53 2.56 2.53 2.56 7.39v20.93q0 1.28-1.21 1.28h-.52q-1.28 0-1.28-1.28V77.02q0-7.62-6.97-7.62-3.65 0-6.21 2.88-.7.58-1.22.58-1.15 0-1.21-1.28 0-.52.25-1.03 1.35-1.85 3.59-3.01 2.24-1.15 4.86-1.15zm-10.81.19h.51q.51 0 .89.36.39.35.39.92v29.38q0 .58-.39.93-.38.35-.89.35h-.51q-.52 0-.9-.35t-.38-.93V67.86q0-.57.38-.92.38-.36.9-.36zm30.4 8.29q0-3.61 2.46-6.05 2.46-2.43 7.36-2.43t7.52 2.4q2.62 2.4 2.62 7.07 0 .52-.35.87t-.86.35h-.58q-.51 0-.86-.35t-.35-.8q0-6.47-7.24-6.47-3.32 0-5.02 1.6-1.7 1.6-1.7 4.04 0 2.43 1.64 3.87 1.63 1.44 6.17 2.33 4.55.9 7.11 2.82 2.56 1.92 2.56 5.73 0 3.81-2.79 6.33-2.78 2.53-7.74 2.53-4.96 0-8.03-2.53-3.08-2.52-3.08-7.45 0-1.35 1.28-1.35h.52q1.21 0 1.21 1.28 0 6.98 8.26 6.98 3.71 0 5.53-1.7 1.83-1.69 1.83-4.19 0-2.49-1.92-3.61-1.92-1.12-6.69-2.15-4.77-1.02-6.82-3.26-2.04-2.24-2.04-5.86zm34.43-13.21v4.86h6.78q.51 0 .87.38.35.39.35.9v.26q0 .51-.35.89-.36.39-.87.39h-6.78l-.07 27.96q0 1.22-1.21 1.22h-.51q-1.28 0-1.28-1.22l.06-35.71q-.06-4.73 2.46-7.33 2.53-2.59 6.95-2.59 2.88 0 2.88 1.28v.51q0 .45-.35.84-.36.38-.87.38h-1.6q-3.01 0-4.73 1.79-1.73 1.79-1.73 5.19zm-7.17 4.86h1.54q.57 0 .92.38.36.39.36.9v.26q0 .51-.36.89-.35.39-.92.39h-1.54q-.58 0-.93-.39-.35-.38-.35-.89v-.26q0-.51.35-.9.35-.38.93-.38zm23.04 10.43q0-5.05 3.07-7.81 3.07-2.75 8-2.75t7.94 2.79q3.01 2.78 3.01 7.77v11.14q0 4.99-3.01 7.77-3.01 2.79-7.91 2.79-4.89 0-8-2.79-3.1-2.78-3.1-7.77V76.95zm19.01 0q0-3.65-2.24-5.6-2.24-1.95-5.7-1.95-3.45 0-5.76 1.95-2.3 1.95-2.3 5.6v11.14q0 3.65 2.3 5.6 2.31 1.95 5.76 1.95 3.46 0 5.7-1.95t2.24-5.6V76.95zm24.13-10.56q1.21 0 1.21 1.28v.45q0 .51-.35.9-.35.38-.86.38-3.65 0-5.83 1.86-2.17 1.85-2.17 5.69v20.29q0 .58-.39.93-.38.35-.89.35H322q-.51 0-.9-.35-.38-.35-.38-.93V76.95q0-5.25 2.94-7.9 2.95-2.66 8.07-2.66zm38.14 0q4.74 0 7.3 2.75 2.56 2.76 2.56 7.81v20.29q0 1.28-1.22 1.28H378q-1.28 0-1.28-1.28V77.02q0-3.78-1.79-5.7-1.8-1.92-5.28-1.92-3.49 0-6.12 2.88-.7.58-1.21.58-1.15 0-1.22-1.28 0-.52.26-1.03 1.34-1.85 3.58-3.01 2.24-1.15 4.93-1.15zm-29.44.19h.51q.51 0 .9.36.38.35.38.92v29.38q0 .58-.38.93-.39.35-.9.35h-.51q-1.22 0-1.22-1.28V67.86q0-1.28 1.22-1.28zm2.37 3.97q2.94-4.16 8-4.16 5.05 0 7.61 2.75 2.56 2.76 2.56 7.81v20.29q0 1.28-1.21 1.28h-.51q-1.28 0-1.28-1.28V77.02q0-3.78-1.8-5.7-1.79-1.92-5.21-1.92-3.43 0-5.99 2.88-.7.58-1.21.58-1.15 0-1.22-1.28 0-.52.26-1.03z" fill="#b93cd7"/></g><style></style></svg>