<?xml version="1.0" encoding="UTF-8" standalone="no"?>
<svg
   xmlns:dc="http://purl.org/dc/elements/1.1/"
   xmlns:cc="http://creativecommons.org/ns#"
   xmlns:rdf="http://www.w3.org/1999/02/22-rdf-syntax-ns#"
   xmlns:svg="http://www.w3.org/2000/svg"
   xmlns="http://www.w3.org/2000/svg"
   width="297mm"
   height="210mm"
   viewBox="0 0 297 210"
   version="1.1"
   id="svg8">
  <defs
     id="defs2" />
  <metadata
     id="metadata5">
    <rdf:RDF>
      <cc:Work
         rdf:about="">
        <dc:format>image/svg+xml</dc:format>
        <dc:type
           rdf:resource="http://purl.org/dc/dcmitype/StillImage" />
        <dc:title></dc:title>
      </cc:Work>
    </rdf:RDF>
  </metadata>
  <g
     id="layer1">
    <g
       id="g1069"
       transform="matrix(0.64000618,0,0,0.64000618,171.30338,80.371838)">
      <rect
         style="fill:#000000;fill-opacity:1;fill-rule:evenodd;stroke-width:0.264583"
         id="rect10"
         width="104.22149"
         height="23.158932"
         x="-104.56474"
         y="-33.799927" />
      <rect
         style="fill:#000000;fill-opacity:0.585119;fill-rule:evenodd;stroke-width:0.264583"
         id="rect10-5"
         width="104.22149"
         height="23.158932"
         x="-104.56474"
         y="9.7296772" />
      <rect
         style="fill:#7467ef;fill-opacity:1;fill-rule:evenodd;stroke-width:0.264583"
         id="rect10-3"
         width="104.22149"
         height="23.158932"
         x="-52.551067"
         y="18.716488"
         transform="rotate(90)" />
      <rect
         style="fill:#7467ef;fill-opacity:0.591187;fill-rule:evenodd;stroke-width:0.264583"
         id="rect10-3-6"
         width="104.22149"
         height="23.158932"
         x="-52.506065"
         y="61.574585"
         transform="rotate(90)" />
    </g>
    <g
       id="g1003"
       transform="matrix(0.25707579,0,0,0.2301442,331.51468,-46.343567)"
       style="stroke-width:14.9858;stroke-miterlimit:4;stroke-dasharray:none">
      <g
         id="g943"
         style="stroke-width:14.9858;stroke-miterlimit:4;stroke-dasharray:none">
	<path
   d="M 151.245,222.446 C 148.054,237.039 135.036,248 119.5,248 c -4.142,0 -7.5,3.357 -7.5,7.5 0,4.143 3.358,7.5 7.5,7.5 23.774,0 43.522,-17.557 46.966,-40.386 14.556,-1.574 27.993,-8.06 38.395,-18.677 2.899,-2.959 2.85,-7.708 -0.109,-10.606 -2.958,-2.897 -7.707,-2.851 -10.606,0.108 C 184.947,202.829 172.643,208 159.5,208 132.757,208 111,186.243 111,159.5 c 0,-4.143 -3.358,-7.5 -7.5,-7.5 -4.142,0 -7.5,3.357 -7.5,7.5 0,32.215 24.119,58.884 55.245,62.946 z"
   id="path933"
   style="stroke-width:14.9858;stroke-miterlimit:4;stroke-dasharray:none" />

	<path
   d="m 183,287.5 c 0,-4.143 -3.358,-7.5 -7.5,-7.5 -35.014,0 -63.5,28.486 -63.5,63.5 0,0.362 0.013,0.725 0.019,1.088 C 109.23,344.212 106.39,344 103.5,344 c -4.142,0 -7.5,3.357 -7.5,7.5 0,4.143 3.358,7.5 7.5,7.5 26.743,0 48.5,21.757 48.5,48.5 0,4.143 3.358,7.5 7.5,7.5 4.142,0 7.5,-3.357 7.5,-7.5 0,-26.611 -16.462,-49.437 -39.731,-58.867 -0.178,-1.699 -0.269,-3.418 -0.269,-5.133 0,-26.743 21.757,-48.5 48.5,-48.5 4.142,0 7.5,-3.357 7.5,-7.5 z"
   id="path935"
   style="stroke-width:14.9858;stroke-miterlimit:4;stroke-dasharray:none" />

	<path
   d="m 439,223.5 c 0,-17.075 -6.82,-33.256 -18.875,-45.156 C 422.034,172.236 423,165.918 423,159.5 423,128.626 400.848,102.841 371.606,97.171 373.841,91.6 375,85.628 375,79.5 375,59.943 363.117,43.113 346.194,35.839 317.999,13.383 287.162,0 263.5,0 250.347,0 238.683,6.468 231.5,16.384 224.317,6.468 212.653,0 199.5,0 175.838,0 145.001,13.383 116.806,35.839 99.883,43.113 88,59.943 88,79.5 88,85.628 89.159,91.6 91.394,97.171 62.152,102.841 40,128.626 40,159.5 c 0,6.418 0.965,12.735 2.875,18.844 C 30.82,190.244 24,206.425 24,223.5 c 0,13.348 4.149,25.741 11.213,35.975 C 27.872,270.087 24,282.466 24,295.5 c 0,23.088 12.587,44.242 32.516,55.396 -0.343,2.852 -0.516,5.73 -0.516,8.604 0,31.144 20.315,58.679 49.79,68.063 12.821,21.942 36.175,35.437 61.71,35.437 27.995,0 52.269,-16.181 64,-39.674 11.731,23.493 36.005,39.674 64,39.674 25.535,0 48.889,-13.495 61.71,-35.437 29.475,-9.385 49.79,-36.92 49.79,-68.063 0,-2.874 -0.173,-5.752 -0.516,-8.604 C 426.413,339.742 439,318.588 439,295.5 439,282.466 435.128,270.087 427.787,259.475 434.851,249.241 439,236.848 439,223.5 Z M 167.5,448 c -21.029,0 -40.191,-11.594 -50.009,-30.256 -0.973,-1.849 -2.671,-3.208 -4.688,-3.751 C 88.19,407.369 71,384.961 71,359.5 c 0,-3.81 0.384,-7.626 1.141,-11.344 0.702,-3.447 -1.087,-6.92 -4.302,-8.35 C 50.32,332.018 39,314.626 39,295.5 39,286.801 41.256,278.486 45.561,271.121 56.757,280.992 71.436,287 87.5,287 91.642,287 95,283.643 95,279.5 95,275.357 91.642,272 87.5,272 60.757,272 39,250.243 39,223.5 c 0,-14.396 6.352,-27.964 17.428,-37.221 2.5,-2.09 3.365,-5.555 2.14,-8.574 C 56.2,171.869 55,165.744 55,159.5 55,132.757 76.757,111 103.5,111 c 26.743,0 48.5,21.757 48.5,48.5 0,4.143 3.358,7.5 7.5,7.5 4.142,0 7.5,-3.357 7.5,-7.5 C 167,125.858 140.698,98.257 107.579,96.145 104.577,91.127 103,85.421 103,79.5 c 0,-13.369 8.116,-24.875 19.678,-29.859 0.447,-0.133 0.885,-0.307 1.308,-0.527 C 127.568,47.752 131.447,47 135.5,47 c 12.557,0 23.767,7.021 29.256,18.325 1.81,3.727 6.298,5.281 10.023,3.47 3.726,-1.809 5.28,-6.296 3.47,-10.022 C 171.983,45.87 160.124,36.596 146.467,33.311 165.609,21.631 184.454,15 199.5,15 213.009,15 224,25.99 224,39.5 v 97.051 C 217.261,131.205 208.75,128 199.5,128 c -4.142,0 -7.5,3.357 -7.5,7.5 0,4.143 3.358,7.5 7.5,7.5 13.509,0 24.5,10.99 24.5,24.5 v 180.279 c -9.325,-12.031 -22.471,-21.111 -37.935,-25.266 -3.999,-1.071 -8.114,1.297 -9.189,5.297 -1.075,4.001 1.297,8.115 5.297,9.189 C 206.8,343.616 224,366.027 224,391.5 224,422.654 198.654,448 167.5,448 Z M 395.161,339.807 c -3.215,1.43 -5.004,4.902 -4.302,8.35 0.757,3.718 1.141,7.534 1.141,11.344 0,25.461 -17.19,47.869 -41.803,54.493 -2.017,0.543 -3.716,1.902 -4.688,3.751 C 335.691,436.406 316.529,448 295.5,448 264.346,448 239,422.654 239,391.5 c 0,-2.109 -0.098,-4.2 -0.281,-6.271 0.178,-0.641 0.281,-1.314 0.281,-2.012 V 135.5 c 0,-13.51 10.991,-24.5 24.5,-24.5 4.142,0 7.5,-3.357 7.5,-7.5 0,-4.143 -3.358,-7.5 -7.5,-7.5 -9.25,0 -17.761,3.205 -24.5,8.551 V 39.5 C 239,25.99 249.991,15 263.5,15 c 15.046,0 33.891,6.631 53.033,18.311 -13.657,3.284 -25.516,12.559 -31.782,25.462 -1.81,3.727 -0.256,8.214 3.47,10.022 3.726,1.81 8.213,0.257 10.023,-3.47 C 303.733,54.021 314.943,47 327.5,47 c 4.053,0 7.933,0.752 11.514,2.114 0.422,0.22 0.86,0.393 1.305,0.526 C 351.883,54.624 360,66.13 360,79.5 c 0,5.921 -1.577,11.627 -4.579,16.645 C 322.302,98.257 296,125.858 296,159.5 c 0,4.143 3.358,7.5 7.5,7.5 4.142,0 7.5,-3.357 7.5,-7.5 0,-26.743 21.757,-48.5 48.5,-48.5 26.743,0 48.5,21.757 48.5,48.5 0,6.244 -1.2,12.369 -3.567,18.205 -1.225,3.02 -0.36,6.484 2.14,8.574 11.075,9.257 17.427,22.825 17.427,37.221 0,26.743 -21.757,48.5 -48.5,48.5 -4.142,0 -7.5,3.357 -7.5,7.5 0,4.143 3.358,7.5 7.5,7.5 16.064,0 30.743,-6.008 41.939,-15.879 4.306,7.365 6.561,15.68 6.561,24.379 0,19.126 -11.32,36.518 -28.839,44.307 z"
   id="path937"
   style="stroke-width:14.9858;stroke-miterlimit:4;stroke-dasharray:none" />

	<path
   d="M 359.5,240 C 343.964,240 330.946,229.039 327.755,214.446 358.881,210.384 383,183.715 383,151.5 c 0,-4.143 -3.358,-7.5 -7.5,-7.5 -4.142,0 -7.5,3.357 -7.5,7.5 0,26.743 -21.757,48.5 -48.5,48.5 -13.143,0 -25.447,-5.171 -34.646,-14.561 -2.898,-2.958 -7.647,-3.007 -10.606,-0.108 -2.959,2.899 -3.008,7.647 -0.109,10.606 10.402,10.617 23.839,17.103 38.395,18.677 3.444,22.829 23.192,40.386 46.966,40.386 4.142,0 7.5,-3.357 7.5,-7.5 0,-4.143 -3.358,-7.5 -7.5,-7.5 z"
   id="path939"
   style="stroke-width:14.9858;stroke-miterlimit:4;stroke-dasharray:none" />

	<path
   d="m 335.5,328 c -2.89,0 -5.73,0.212 -8.519,0.588 0.006,-0.363 0.019,-0.726 0.019,-1.088 0,-35.014 -28.486,-63.5 -63.5,-63.5 -4.142,0 -7.5,3.357 -7.5,7.5 0,4.143 3.358,7.5 7.5,7.5 26.743,0 48.5,21.757 48.5,48.5 0,1.714 -0.091,3.434 -0.269,5.133 C 288.462,342.063 272,364.889 272,391.5 c 0,4.143 3.358,7.5 7.5,7.5 4.142,0 7.5,-3.357 7.5,-7.5 0,-26.743 21.757,-48.5 48.5,-48.5 4.142,0 7.5,-3.357 7.5,-7.5 0,-4.143 -3.358,-7.5 -7.5,-7.5 z"
   id="path941"
   style="stroke-width:14.9858;stroke-miterlimit:4;stroke-dasharray:none" />

</g>
      <g
         id="g945"
         style="stroke-width:14.9858;stroke-miterlimit:4;stroke-dasharray:none">
</g>
      <g
         id="g947"
         style="stroke-width:14.9858;stroke-miterlimit:4;stroke-dasharray:none">
</g>
      <g
         id="g949"
         style="stroke-width:14.9858;stroke-miterlimit:4;stroke-dasharray:none">
</g>
      <g
         id="g951"
         style="stroke-width:14.9858;stroke-miterlimit:4;stroke-dasharray:none">
</g>
      <g
         id="g953"
         style="stroke-width:14.9858;stroke-miterlimit:4;stroke-dasharray:none">
</g>
      <g
         id="g955"
         style="stroke-width:14.9858;stroke-miterlimit:4;stroke-dasharray:none">
</g>
      <g
         id="g957"
         style="stroke-width:14.9858;stroke-miterlimit:4;stroke-dasharray:none">
</g>
      <g
         id="g959"
         style="stroke-width:14.9858;stroke-miterlimit:4;stroke-dasharray:none">
</g>
      <g
         id="g961"
         style="stroke-width:14.9858;stroke-miterlimit:4;stroke-dasharray:none">
</g>
      <g
         id="g963"
         style="stroke-width:14.9858;stroke-miterlimit:4;stroke-dasharray:none">
</g>
      <g
         id="g965"
         style="stroke-width:14.9858;stroke-miterlimit:4;stroke-dasharray:none">
</g>
      <g
         id="g967"
         style="stroke-width:14.9858;stroke-miterlimit:4;stroke-dasharray:none">
</g>
      <g
         id="g969"
         style="stroke-width:14.9858;stroke-miterlimit:4;stroke-dasharray:none">
</g>
      <g
         id="g971"
         style="stroke-width:14.9858;stroke-miterlimit:4;stroke-dasharray:none">
</g>
      <g
         id="g973"
         style="stroke-width:14.9858;stroke-miterlimit:4;stroke-dasharray:none">
</g>
    </g>
    <g
       id="g1063"
       transform="matrix(0.26458333,0,0,0.26458333,69.351564,20.034276)"
       style="fill:#3a3478;fill-opacity:0.81305617">
      <g
         id="g1007"
         style="fill:#3a3478;fill-opacity:0.81305617">
	<path
   d="M 566.59116,246.39016 C 559.63747,166.04552 512.07887,91.952617 445.45541,47.569059 408.94511,23.247338 366.64337,8.3189127 323.22435,2.6718462 203.55215,-12.893679 77.515237,39.669652 32.367996,157.21819 -6.4427709,258.27222 31.824003,358.59501 101.32226,435.10658 c 25.08017,27.61079 28.55754,79.52447 28.55754,114.4959 v 70.91996 c 0,10.88823 8.82733,19.71556 19.71556,19.71556 h 256.61932 c 10.38713,0 18.97176,-8.05946 19.67372,-18.42253 0.94466,-13.95029 2.49609,-26.21838 2.49609,-26.21838 5.36566,-23.0109 24.98602,-41.46273 66.71029,-34.76429 43.7747,7.02274 71.38549,-6.02159 73.84078,-35.16811 0.80971,-9.61507 1.33174,-91.74129 1.33174,-91.74129 2.09123,-1.19469 15.81451,-3.92303 35.81567,-8.4706 15.55297,-3.53596 21.03056,-22.84562 9.6904,-34.06338 -45.47469,-44.98509 -51.57369,-65.95602 -52.70247,-70.47012 -5.63138,-22.42716 5.56024,-50.96378 3.52026,-74.52914 z M 497.6257,217.1466 c -6.31764,8.00402 4.37055,33.16323 -33.1117,12.17159 -1.25328,0.0691 -2.1268,1.26165 -1.78472,2.46889 1.95419,6.8857 7.61163,22.21124 -26.34086,29.59595 -31.84242,6.92022 -6.3395,64.15345 -44.5262,55.49976 -9.65902,9.65065 -33.742,67.58168 -40.51081,40.88688 6.76881,26.6948 -69.37197,5.92857 -69.37197,5.92857 -11.06503,9.96658 -12.38025,42.56625 -15.02908,52.10601 -0.23224,0.83795 25.35154,27.83522 10.40541,28.6113 l -8.01722,15.79018 c -4.71781,35.11164 -26.23527,-40.23764 -26.23527,-40.23764 l -4.17902,-41.7454 c -0.33267,-1.57339 -77.09847,4.7432 -83.00811,-29.52208 -0.20714,-1.20202 -1.42171,-1.94792 -2.56933,-1.53364 -7.38156,2.66347 -31.062,9.21649 -43.84374,-10.58904 -9.06272,-14.04234 -6.65555,-27.15258 -5.39286,-31.67923 0.26154,-0.93734 -0.20923,-1.91234 -1.10368,-2.29732 -6.512222,-2.80052 -30.044107,-15.99444 -26.853378,-59.40404 2.574552,-34.99131 26.242438,-50.50034 22.933492,-55.88169 -9.544986,-15.52159 -1.248045,-41.25037 18.307456,-46.99368 0.78775,-0.2312 1.34743,-0.92897 1.42171,-1.74705 l 0.8254,-9.1213 c 2.71578,-32.161502 44.97463,-52.543458 73.70583,-39.172736 1.10787,0.515747 2.42496,-0.03348 2.7932,-1.197831 3.59663,-11.400839 10.8558,-14.539261 12.79011,-15.627247 8.90789,-5.012059 20.47507,-4.392744 29.68319,-0.613038 0.74486,0.305473 1.59328,0.11926 2.1425,-0.468671 2.6164,-2.802611 13.34457,-11.697943 31.11117,-11.697943 18.22377,0 27.48735,8.855579 30.7262,11.334932 0.59525,0.455071 1.39555,0.53667 2.06299,0.196675 4.09982,-2.096466 19.06904,-8.799088 34.05605,-3.636385 11.31715,3.904197 17.7415,14.204496 19.76474,17.952818 0.43205,0.801343 1.3401,1.210384 2.22618,1.001156 5.37403,-1.273153 23.95871,-4.842584 39.57236,2.208403 16.49973,7.458982 21.64779,18.237367 22.96069,21.850737 0.26677,0.73544 0.95618,1.22817 1.73869,1.25955 3.5778,0.14228 13.45127,1.00848 19.55341,6.13666 10.77525,9.05958 9.72283,16.20263 8.48211,19.25945 -0.37766,0.93107 0.0397,1.99813 0.94257,2.44065 4.92105,2.41344 18.71755,10.38503 27.27602,27.31682 11.78164,23.32475 22.85953,40.96084 16.39647,49.14898 z"
   id="path1005"
   style="fill:#000000;fill-opacity:0.58431375;stroke-width:1.04614" />

</g>
      <g
         id="g1009"
         style="fill:#3a3478;fill-opacity:0.81305617">
</g>
      <g
         id="g1011"
         style="fill:#3a3478;fill-opacity:0.81305617">
</g>
      <g
         id="g1013"
         style="fill:#3a3478;fill-opacity:0.81305617">
</g>
      <g
         id="g1015"
         style="fill:#3a3478;fill-opacity:0.81305617">
</g>
      <g
         id="g1017"height="130"
         style="fill:#3a3478;fill-opacity:0.81305617">
</g>
      <g
         id="g1019"
         style="fill:#3a3478;fill-opacity:0.81305617">
</g>
      <g
         id="g1021"
         style="fill:#3a3478;fill-opacity:0.81305617">
</g>
      <g
         id="g1023"
         style="fill:#3a3478;fill-opacity:0.81305617">
</g>
      <g
         id="g1025"
         style="fill:#3a3478;fill-opacity:0.81305617">
</g>
      <g
         id="g1027"
         style="fill:#3a3478;fill-opacity:0.81305617">
</g>
      <g
         id="g1029"
         style="fill:#3a3478;fill-opacity:0.81305617">
</g>
      <g
         id="g1031"
         style="fill:#3a3478;fill-opacity:0.81305617">
</g>
      <g
         id="g1033"
         style="fill:#3a3478;fill-opacity:0.81305617">
</g>
      <g
         id="g1035"
         style="fill:#3a3478;fill-opacity:0.81305617">
</g>
      <g
         id="g1037"
         style="fill:#3a3478;fill-opacity:0.81305617">
</g>
    </g>
  </g>
</svg>
