<?xml version="1.0" encoding="UTF-8" standalone="no"?>
<svg
   xmlns:dc="http://purl.org/dc/elements/1.1/"
   xmlns:cc="http://creativecommons.org/ns#"
   xmlns:rdf="http://www.w3.org/1999/02/22-rdf-syntax-ns#"
   xmlns:svg="http://www.w3.org/2000/svg"
   xmlns="http://www.w3.org/2000/svg"
   width="160.05034mm"
   height="169.39632mm"
   viewBox="0 0 160.05034 169.39632"
   version="1.1"
   id="svg8">
  <defs
     id="defs2" />
  <metadata
     id="metadata5">
    <rdf:RDF>
      <cc:Work
         rdf:about="">
        <dc:format>image/svg+xml</dc:format>
        <dc:type
           rdf:resource="http://purl.org/dc/dcmitype/StillImage" />
        <dc:title></dc:title>
      </cc:Work>
    </rdf:RDF>
  </metadata>
  <g
     id="layer1"
     transform="translate(-70.021782,-9.0370493)">
    <g
       id="g1069"
       transform="matrix(0.92234907,0,0,0.92234907,189.83618,78.243782)">
      <rect
         style="fill:#000000;fill-opacity:1;fill-rule:evenodd;stroke-width:0.264583"
         id="rect10"
         width="104.22149"
         height="23.158932"
         x="-104.56474"
         y="-33.799927" />
      <rect
         style="fill:#000000;fill-opacity:0.585119;fill-rule:evenodd;stroke-width:0.264583"
         id="rect10-5"
         width="104.22149"
         height="23.158932"
         x="-104.56474"
         y="9.7296772" />
      <rect
         style="fill:#7467ef;fill-opacity:1;fill-rule:evenodd;stroke-width:0.264583"
         id="rect10-3"
         width="104.22149"
         height="23.158932"
         x="-52.551067"
         y="18.716488"
         transform="rotate(90)" />
      <rect
         style="fill:#7467ef;fill-opacity:0.591187;fill-rule:evenodd;stroke-width:0.264583"
         id="rect10-3-6"
         width="104.22149"
         height="23.158932"
         x="-52.506065"
         y="61.574585"
         transform="rotate(90)" />
    </g>
    <g
       id="g1063"
       transform="matrix(0.26458333,0,0,0.26458333,65.554961,9.0370684)"
       style="fill:#3a3478;fill-opacity:0.813056">
      <g
         id="g1007"
         style="fill:#3a3478;fill-opacity:0.813056">
	<path
   d="M 566.59116,246.39016 C 559.63747,166.04552 512.07887,91.952617 445.45541,47.569059 408.94511,23.247338 366.64337,8.3189127 323.22435,2.6718462 203.55215,-12.893679 77.515237,39.669652 32.367996,157.21819 -6.4427709,258.27222 31.824003,358.59501 101.32226,435.10658 c 25.08017,27.61079 28.55754,79.52447 28.55754,114.4959 v 70.91996 c 0,10.88823 8.82733,19.71556 19.71556,19.71556 h 256.61932 c 10.38713,0 18.97176,-8.05946 19.67372,-18.42253 0.94466,-13.95029 2.49609,-26.21838 2.49609,-26.21838 5.36566,-23.0109 24.98602,-41.46273 66.71029,-34.76429 43.7747,7.02274 71.38549,-6.02159 73.84078,-35.16811 0.80971,-9.61507 1.33174,-91.74129 1.33174,-91.74129 2.09123,-1.19469 15.81451,-3.92303 35.81567,-8.4706 15.55297,-3.53596 21.03056,-22.84562 9.6904,-34.06338 -45.47469,-44.98509 -51.57369,-65.95602 -52.70247,-70.47012 -5.63138,-22.42716 5.56024,-50.96378 3.52026,-74.52914 z"
   id="path1005"
   style="fill:#000000;fill-opacity:0.301775;stroke-width:1.04614" />

</g>
      <g
         id="g1009"
         style="fill:#3a3478;fill-opacity:0.813056">
</g>
      <g
         id="g1011"
         style="fill:#3a3478;fill-opacity:0.813056">
</g>
      <g
         id="g1013"
         style="fill:#3a3478;fill-opacity:0.813056">
</g>
      <g
         id="g1015"
         style="fill:#3a3478;fill-opacity:0.813056">
</g>
      <g
         id="g1017"
         style="fill:#3a3478;fill-opacity:0.813056">
</g>
      <g
         id="g1019"
         style="fill:#3a3478;fill-opacity:0.813056">
</g>
      <g
         id="g1021"
         style="fill:#3a3478;fill-opacity:0.813056">
</g>
      <g
         id="g1023"
         style="fill:#3a3478;fill-opacity:0.813056">
</g>
      <g
         id="g1025"
         style="fill:#3a3478;fill-opacity:0.813056">
</g>
      <g
         id="g1027"
         style="fill:#3a3478;fill-opacity:0.813056">
</g>
      <g
         id="g1029"
         style="fill:#3a3478;fill-opacity:0.813056">
</g>
      <g
         id="g1031"
         style="fill:#3a3478;fill-opacity:0.813056">
</g>
      <g
         id="g1033"
         style="fill:#3a3478;fill-opacity:0.813056">
</g>
      <g
         id="g1035"
         style="fill:#3a3478;fill-opacity:0.813056">
</g>
      <g
         id="g1037"
         style="fill:#3a3478;fill-opacity:0.813056">
</g>
    </g>
  </g>
</svg>
