<?xml version="1.0" encoding="UTF-8" standalone="no"?>
<svg
   xmlns:dc="http://purl.org/dc/elements/1.1/"
   xmlns:cc="http://creativecommons.org/ns#"
   xmlns:rdf="http://www.w3.org/1999/02/22-rdf-syntax-ns#"
   xmlns:svg="http://www.w3.org/2000/svg"
   xmlns="http://www.w3.org/2000/svg"
   xmlns:sodipodi="http://sodipodi.sourceforge.net/DTD/sodipodi-0.dtd"
   xmlns:inkscape="http://www.inkscape.org/namespaces/inkscape"
   width="160.05mm"
   height="169.4mm"
   version="1.1"
   viewBox="0 0 160.05 169.4"
   id="svg20"
   sodipodi:docname="headlogobaseopt.svg"
   inkscape:version="1.0.2 (1.0.2+r75+1)">
  <metadata
     id="metadata26">
    <rdf:RDF>
      <cc:Work
         rdf:about="">
        <dc:format>image/svg+xml</dc:format>
        <dc:type
           rdf:resource="http://purl.org/dc/dcmitype/StillImage" />
      </cc:Work>
    </rdf:RDF>
  </metadata>
  <defs
     id="defs24" />
  <sodipodi:namedview
     pagecolor="#ffffff"
     bordercolor="#666666"
     borderopacity="1"
     objecttolerance="10"
     gridtolerance="10"
     guidetolerance="10"
     inkscape:pageopacity="0"
     inkscape:pageshadow="2"
     inkscape:window-width="1840"
     inkscape:window-height="1016"
     id="namedview22"
     showgrid="false"
     inkscape:zoom="0.95200967"
     inkscape:cx="311.75137"
     inkscape:cy="350.27644"
     inkscape:window-x="80"
     inkscape:window-y="27"
     inkscape:window-maximized="1"
     inkscape:current-layer="svg20" />
  <g
     transform="matrix(-1,0,0,1,230.06613,-9.037)"
     id="g18">
    <g
       transform="matrix(0.92235,0,0,0.92235,189.84,78.244)"
       fill-rule="evenodd"
       stroke-width="0.26458"
       id="g10">
      <rect
         x="-104.56"
         y="-33.799999"
         width="104.22"
         height="23.159"
         id="rect2" />
      <rect
         x="-104.56"
         y="9.7297001"
         width="104.22"
         height="23.159"
         fill-opacity="0.58512"
         id="rect4" />
      <rect
         transform="rotate(90)"
         x="-52.550999"
         y="18.716"
         width="104.22"
         height="23.159"
         fill="#7467ef"
         id="rect6" />
      <rect
         transform="rotate(90)"
         x="-52.506001"
         y="61.575001"
         width="104.22"
         height="23.159"
         fill="#7467ef"
         fill-opacity="0.59119"
         id="rect8" />
    </g>
    <g
       transform="matrix(0.26458,0,0,0.26458,65.555,9.0371)"
       fill="#3a3478"
       fill-opacity="0.81306"
       id="g16">
      <g
         fill="#3a3478"
         fill-opacity="0.81306"
         id="g14">
        <path
           d="M 566.59,246.39 C 559.6363,166.045 512.078,91.95 445.45,47.57 408.94,23.248 366.638,8.32 323.22,2.673 203.55,-12.893 77.51,39.671 32.36,157.223 c -38.811,101.05 -0.54399,201.38 68.954,277.89 25.08,27.611 28.558,79.524 28.558,114.5 v 70.92 c 0,10.888 8.8273,19.716 19.716,19.716 h 256.62 c 10.387,0 18.972,-8.0595 19.674,-18.423 0.94466,-13.95 2.4961,-26.218 2.4961,-26.218 5.3657,-23.011 24.986,-41.463 66.71,-34.764 43.775,7.0227 71.385,-6.0216 73.841,-35.168 0.80971,-9.6151 1.3317,-91.741 1.3317,-91.741 2.0912,-1.1947 15.815,-3.923 35.816,-8.4706 15.553,-3.536 21.031,-22.846 9.6904,-34.063 -45.475,-44.985 -51.574,-65.956 -52.702,-70.47 -5.6314,-22.427 5.5602,-50.964 3.5203,-74.529 z"
           fill="#000000"
           fill-opacity="0.30178"
           stroke-width="1.0461"
           id="path12" />
      </g>
    </g>
  </g>
</svg>
