<?xml version="1.0" encoding="UTF-8" standalone="no"?>
<svg
   xmlns:dc="http://purl.org/dc/elements/1.1/"
   xmlns:cc="http://creativecommons.org/ns#"
   xmlns:rdf="http://www.w3.org/1999/02/22-rdf-syntax-ns#"
   xmlns:svg="http://www.w3.org/2000/svg"
   xmlns="http://www.w3.org/2000/svg"
   xmlns:sodipodi="http://sodipodi.sourceforge.net/DTD/sodipodi-0.dtd"
   xmlns:inkscape="http://www.inkscape.org/namespaces/inkscape"
   width="160.05mm"
   height="169.4mm"
   version="1.1"
   viewBox="0 0 160.05 169.4"
   id="svg20"
   sodipodi:docname="headlogobaseopt.svg"
   inkscape:version="1.0.2 (1.0.2+r75+1)">
  <metadata
     id="metadata26">
    <rdf:RDF>
      <cc:Work
         rdf:about="">
        <dc:format>image/svg+xml</dc:format>
        <dc:type
           rdf:resource="http://purl.org/dc/dcmitype/StillImage" />
      </cc:Work>
    </rdf:RDF>
  </metadata>
  <defs
     id="defs24" />
  <sodipodi:namedview
     pagecolor="#ffffff"
     bordercolor="#666666"
     borderopacity="1"
     objecttolerance="10"
     gridtolerance="10"
     guidetolerance="10"
     inkscape:pageopacity="0"
     inkscape:pageshadow="2"
     inkscape:window-width="1840"
     inkscape:window-height="1016"
     id="namedview22"
     showgrid="false"
     inkscape:zoom="0.95200967"
     inkscape:cx="311.75137"
     inkscape:cy="350.27644"
     inkscape:window-x="80"
     inkscape:window-y="27"
     inkscape:window-maximized="1"
     inkscape:current-layer="svg20" />
  
  
  <g transform="translate(80 0) scale(0.3 0.3)">
  <g
     transform="matrix(-1,0,0,1,230.06613,-9.037)"
     id="g18">
    
    <g
       transform="matrix(0.26458,0,0,0.26458,65.555,9.0371)"
       fill="#3a3478"
       fill-opacity="0.81306"
       id="g16">
      <g
         fill="#3a3478"
         fill-opacity="0.81306"
         id="g14">
        <path
           d="M 566.59,246.39 C 559.6363,166.045 512.078,91.95 445.45,47.57 408.94,23.248 366.638,8.32 323.22,2.673 203.55,-12.893 77.51,39.671 32.36,157.223 c -38.811,101.05 -0.54399,201.38 68.954,277.89 25.08,27.611 28.558,79.524 28.558,114.5 v 70.92 c 0,10.888 8.8273,19.716 19.716,19.716 h 256.62 c 10.387,0 18.972,-8.0595 19.674,-18.423 0.94466,-13.95 2.4961,-26.218 2.4961,-26.218 5.3657,-23.011 24.986,-41.463 66.71,-34.764 43.775,7.0227 71.385,-6.0216 73.841,-35.168 0.80971,-9.6151 1.3317,-91.741 1.3317,-91.741 2.0912,-1.1947 15.815,-3.923 35.816,-8.4706 15.553,-3.536 21.031,-22.846 9.6904,-34.063 -45.475,-44.985 -51.574,-65.956 -52.702,-70.47 -5.6314,-22.427 5.5602,-50.964 3.5203,-74.529 z"
           fill="#000000"
           fill-opacity="0.30178"
           stroke-width="1.0461"
           id="path12" />
      </g>
    </g>

  </g>

    <g transform="translate(60 20) scale(0.4)">
    <g>
        <path fill="#BB33FF" d="M116.7 66.28a52.86 52.86 0 0 1-1 8.18l9.8 7.57-1.78 4.67-1.77 4.67-12.36-.82a52.87 52.87 0 0 1-4.7 6.7L110 108.5l-3.75 3.3-3.75 3.32L92 108.67a52.6 52.6 0 0 1-7.45 3.9l-.66 12.3-4.87 1.2-4.86 1.2-6.38-10.66q-1.9.2-3.88.2-2.15 0-4.25-.14l-6.3 10.64-4.84-1.2-4.85-1.2-.7-12.43a52.6 52.6 0 0 1-6.7-3.5l-10.6 6.64-3.75-3.3-3.76-3.3 5.05-11.4a52.88 52.88 0 0 1-4.73-6.73l-12.34.9-1.8-4.66-1.8-4.67 9.7-7.67a52.8 52.8 0 0 1-1-8.05l-11.4-5 .56-4.95.54-4.97 12.26-2.3a52.37 52.37 0 0 1 2.94-7.83L8.4 32l2.8-4.14 2.8-4.14 12 3.68a53.06 53.06 0 0 1 6-5.33L29.57 9.8l4.4-2.37 4.43-2.35 8.95 8.86a52.4 52.4 0 0 1 8-1.98L59 0h10l3.66 11.96a52.4 52.4 0 0 1 7.8 1.9L89.26 5l4.42 2.3 4.43 2.34-2.3 12.27a52.98 52.98 0 0 1 6.2 5.5l11.9-3.7 2.9 4.1 2.84 4.1-7.8 9.8a52.34 52.34 0 0 1 2.86 7.5l12.3 2.17.6 4.96.57 4.95zM41 64a23 23 0 1 0 23-23 23 23 0 0 0-23 23z"/>
        <animateTransform attributeName="transform" type="rotate" from="0 64 64" to="27.69 64 64" dur="900ms" repeatCount="indefinite"></animateTransform>
    </g>
    

    <g
     transform="translate(-43 115) scale(0.8 0.8)"
     id="g18">
    <g>
        <path fill="#BB33FF" d="M116.7 66.28a52.86 52.86 0 0 1-1 8.18l9.8 7.57-1.78 4.67-1.77 4.67-12.36-.82a52.87 52.87 0 0 1-4.7 6.7L110 108.5l-3.75 3.3-3.75 3.32L92 108.67a52.6 52.6 0 0 1-7.45 3.9l-.66 12.3-4.87 1.2-4.86 1.2-6.38-10.66q-1.9.2-3.88.2-2.15 0-4.25-.14l-6.3 10.64-4.84-1.2-4.85-1.2-.7-12.43a52.6 52.6 0 0 1-6.7-3.5l-10.6 6.64-3.75-3.3-3.76-3.3 5.05-11.4a52.88 52.88 0 0 1-4.73-6.73l-12.34.9-1.8-4.66-1.8-4.67 9.7-7.67a52.8 52.8 0 0 1-1-8.05l-11.4-5 .56-4.95.54-4.97 12.26-2.3a52.37 52.37 0 0 1 2.94-7.83L8.4 32l2.8-4.14 2.8-4.14 12 3.68a53.06 53.06 0 0 1 6-5.33L29.57 9.8l4.4-2.37 4.43-2.35 8.95 8.86a52.4 52.4 0 0 1 8-1.98L59 0h10l3.66 11.96a52.4 52.4 0 0 1 7.8 1.9L89.26 5l4.42 2.3 4.43 2.34-2.3 12.27a52.98 52.98 0 0 1 6.2 5.5l11.9-3.7 2.9 4.1 2.84 4.1-7.8 9.8a52.34 52.34 0 0 1 2.86 7.5l12.3 2.17.6 4.96.57 4.95zM41 64a23 23 0 1 0 23-23 23 23 0 0 0-23 23z"/>
        <animateTransform attributeName="transform" type="rotate" from="27.69 64 64" to=" 0 64 64" dur="900ms" repeatCount="indefinite"></animateTransform>
    </g></g>
    
    <g
     transform="translate(65 115) scale(0.8 0.8)"
     id="g18">
    <g>
        <path fill="#BB33FF" d="M116.7 66.28a52.86 52.86 0 0 1-1 8.18l9.8 7.57-1.78 4.67-1.77 4.67-12.36-.82a52.87 52.87 0 0 1-4.7 6.7L110 108.5l-3.75 3.3-3.75 3.32L92 108.67a52.6 52.6 0 0 1-7.45 3.9l-.66 12.3-4.87 1.2-4.86 1.2-6.38-10.66q-1.9.2-3.88.2-2.15 0-4.25-.14l-6.3 10.64-4.84-1.2-4.85-1.2-.7-12.43a52.6 52.6 0 0 1-6.7-3.5l-10.6 6.64-3.75-3.3-3.76-3.3 5.05-11.4a52.88 52.88 0 0 1-4.73-6.73l-12.34.9-1.8-4.66-1.8-4.67 9.7-7.67a52.8 52.8 0 0 1-1-8.05l-11.4-5 .56-4.95.54-4.97 12.26-2.3a52.37 52.37 0 0 1 2.94-7.83L8.4 32l2.8-4.14 2.8-4.14 12 3.68a53.06 53.06 0 0 1 6-5.33L29.57 9.8l4.4-2.37 4.43-2.35 8.95 8.86a52.4 52.4 0 0 1 8-1.98L59 0h10l3.66 11.96a52.4 52.4 0 0 1 7.8 1.9L89.26 5l4.42 2.3 4.43 2.34-2.3 12.27a52.98 52.98 0 0 1 6.2 5.5l11.9-3.7 2.9 4.1 2.84 4.1-7.8 9.8a52.34 52.34 0 0 1 2.86 7.5l12.3 2.17.6 4.96.57 4.95zM41 64a23 23 0 1 0 23-23 23 23 0 0 0-23 23z"/>
        <animateTransform attributeName="transform" type="rotate" from="27.69 64 64" to=" 0 64 64" dur="900ms" repeatCount="indefinite"></animateTransform>
    </g></g>

    </g></g>
</svg>
